<?xml version="1.0" standalone="no"?>
<!DOCTYPE svg PUBLIC "-//W3C//DTD SVG 20010904//EN"
 "http://www.w3.org/TR/2001/REC-SVG-20010904/DTD/svg10.dtd">
<svg version="1.0" xmlns="http://www.w3.org/2000/svg"
 width="1199.000000pt" height="1280.000000pt" viewBox="0 0 1199.000000 1280.000000"
 preserveAspectRatio="xMidYMid meet">
<metadata>
Created by potrace 1.15, written by Peter Selinger 2001-2017
</metadata>
<g transform="translate(0.000000,1280.000000) scale(0.100000,-0.100000)"
fill="#000000" stroke="none">
<path d="M1630 12768 c0 -90 54 -416 79 -480 8 -21 17 -28 38 -28 20 0 31 -7
38 -22 8 -19 23 -25 88 -35 43 -6 85 -17 93 -24 25 -20 36 -88 43 -274 8 -186
15 -224 34 -189 13 22 23 352 13 419 -10 64 -39 94 -102 104 -103 16 -204 107
-204 185 0 59 -90 359 -111 372 -5 3 -9 -10 -9 -28z"/>
<path d="M11094 12608 c-46 -55 -131 -245 -164 -368 -17 -63 -54 -227 -81
-365 -60 -301 -88 -397 -134 -461 -74 -104 -75 -107 -75 -281 0 -208 -10 -274
-50 -329 -38 -54 -55 -100 -69 -195 -27 -170 -173 -540 -228 -576 -63 -41
-157 -10 -298 98 -94 72 -213 133 -293 150 -32 7 -61 15 -65 19 -5 5 16 32 46
61 50 49 56 59 66 118 12 72 35 107 51 81 5 -8 10 -25 10 -37 0 -33 45 -63 95
-63 l42 0 -4 113 c-9 189 43 429 148 688 57 140 59 149 59 235 0 49 -9 131
-19 182 -38 180 -66 205 -226 199 -91 -3 -109 -7 -197 -46 -94 -40 -98 -41
-122 -25 -24 15 -103 103 -298 329 -89 103 -165 168 -258 218 -93 51 -231 95
-320 101 -41 2 -87 9 -102 15 -100 38 -597 39 -743 2 -168 -44 -307 -133 -490
-316 -157 -157 -234 -256 -389 -497 -30 -49 -62 -88 -71 -88 -8 0 -36 31 -61
69 -53 80 -100 116 -175 137 -134 35 -267 -5 -256 -79 3 -24 0 -28 -34 -37
-30 -8 -41 -19 -58 -54 -32 -64 -46 -195 -32 -295 27 -206 164 -496 319 -676
57 -67 64 -85 28 -85 -29 0 -35 -7 -85 -105 -61 -118 -149 -235 -196 -262 -22
-12 -73 -29 -114 -39 -41 -9 -85 -21 -98 -27 -41 -19 -25 -30 37 -25 33 2 60
1 60 -3 0 -9 -144 -101 -204 -131 -40 -19 -46 -26 -41 -46 10 -40 -65 -97
-370 -281 -93 -56 -195 -121 -225 -143 l-55 -40 43 7 c71 11 48 -11 -40 -41
-104 -34 -137 -50 -161 -80 -10 -13 -109 -69 -220 -125 -226 -114 -291 -154
-283 -175 9 -24 -27 -33 -175 -45 -167 -14 -673 -18 -686 -6 -4 5 4 19 19 30
l27 22 -337 1 c-348 1 -683 21 -849 50 -48 8 -118 28 -157 45 -202 88 -209 89
-199 49 8 -28 -19 -26 -50 5 -34 35 -48 96 -57 265 -5 80 -25 269 -44 420 -40
308 -60 512 -76 770 -21 346 -62 669 -100 785 -34 105 -41 155 -50 355 -5 115
-13 206 -20 222 -13 28 -64 58 -99 58 -19 0 -20 -4 -15 -117 6 -121 3 -148
-36 -341 -21 -99 -22 -119 -11 -160 15 -59 55 -120 85 -132 12 -4 39 -23 58
-42 79 -74 87 -219 27 -473 -25 -104 -24 -232 1 -426 26 -202 25 -199 54 -199
54 0 61 -25 71 -250 8 -211 37 -313 87 -307 17 2 23 -5 30 -33 4 -19 5 -53 2
-75 l-7 -40 -32 38 c-18 20 -37 37 -42 37 -36 0 -56 -190 -29 -282 8 -30 36
-85 61 -124 25 -38 57 -104 71 -148 41 -131 48 -296 15 -329 -20 -20 -28 7
-34 118 -3 57 -11 113 -17 125 -27 50 -32 5 -28 -252 l3 -260 -34 -28 c-19
-16 -42 -41 -52 -57 l-19 -28 3 65 c2 63 1 65 -23 68 -14 2 -29 8 -34 12 -5 5
9 50 34 106 45 104 44 121 -11 102 -57 -20 -135 -138 -122 -186 4 -16 1 -22
-11 -22 -24 0 -63 -46 -98 -113 -41 -83 -30 -93 19 -16 57 91 64 96 110 72 44
-23 53 -55 28 -103 -38 -74 -72 -320 -44 -320 21 0 71 129 78 203 4 55 10 72
22 75 25 5 37 -40 55 -208 20 -191 22 -337 4 -370 -35 -69 -64 -85 -238 -130
-178 -46 -173 -62 11 -39 96 12 137 7 137 -16 0 -25 -42 -44 -123 -57 -46 -7
-77 -16 -77 -24 0 -6 9 -32 21 -58 11 -27 17 -55 14 -67 -4 -13 -45 -39 -118
-75 -113 -56 -146 -78 -134 -90 6 -7 37 -3 216 30 104 19 135 9 72 -23 -59
-30 -53 -56 12 -56 26 0 47 -1 47 -2 0 -1 -19 -20 -42 -42 -42 -40 -43 -41
-16 -41 40 0 59 -10 69 -36 5 -15 17 -25 31 -26 48 -3 84 4 101 20 17 16 17
17 1 29 -10 7 -36 13 -58 13 l-40 0 26 28 c39 41 46 61 58 158 23 195 43 318
85 514 24 113 55 298 69 413 35 275 63 349 123 326 27 -10 38 -30 52 -98 6
-30 23 -70 37 -88 36 -47 138 -93 224 -100 85 -7 94 4 60 76 -22 47 -24 87 -5
85 5 -1 30 -39 55 -84 62 -112 97 -150 171 -190 83 -43 130 -76 208 -144 52
-45 71 -56 100 -56 20 0 45 -7 55 -15 33 -25 38 -18 31 51 -11 97 -11 97 0
101 6 2 53 -31 105 -73 97 -78 148 -110 157 -100 13 13 -33 88 -85 141 -41 42
-62 55 -84 55 -33 0 -68 16 -68 31 0 5 11 7 25 3 20 -5 25 -2 25 13 0 23 -43
84 -88 127 -26 24 -34 27 -47 16 -9 -7 -25 -10 -41 -6 -28 7 -224 194 -224
214 0 20 36 14 127 -23 48 -19 93 -35 100 -35 7 0 17 19 24 43 13 48 -2 89
-35 95 -16 4 -18 -1 -12 -32 4 -20 5 -36 2 -36 -2 0 -33 13 -68 29 -35 16 -91
36 -124 45 -32 10 -76 28 -96 42 -20 13 -55 28 -77 33 -22 5 -60 20 -85 35
-25 14 -66 38 -92 52 -25 15 -48 24 -51 20 -21 -21 64 -103 94 -91 8 3 13 -5
13 -19 0 -13 9 -43 19 -67 42 -92 0 -65 -147 95 -51 55 -105 120 -120 144 -27
42 -27 42 -82 40 l-55 -3 -3 116 c-1 65 2 128 8 144 10 27 12 28 73 22 34 -3
95 -18 135 -32 101 -37 150 -43 462 -60 180 -10 309 -23 374 -36 79 -16 131
-19 270 -18 95 1 178 -1 185 -5 17 -11 33 -58 23 -68 -4 -4 -59 3 -121 17 -63
14 -115 24 -117 22 -2 -2 25 -16 61 -32 36 -15 68 -32 72 -38 12 -19 -108 0
-294 47 -196 49 -313 67 -313 47 0 -6 15 -11 33 -11 51 0 77 -11 77 -31 0 -25
8 -28 101 -40 45 -5 191 -35 323 -66 335 -77 392 -79 465 -17 16 13 45 31 65
39 41 17 136 20 136 5 0 -14 -78 -50 -110 -50 -33 0 -70 -26 -70 -49 0 -10 11
-27 23 -40 29 -27 136 -49 168 -35 20 9 17 12 -35 40 -58 30 -70 44 -37 44 36
0 385 -30 441 -38 66 -10 105 -1 168 37 26 16 58 32 71 36 22 7 23 5 17 -20
-6 -24 -5 -26 16 -20 76 23 266 138 418 253 65 49 78 63 55 58 -32 -8 -127
-53 -238 -112 -50 -27 -84 -37 -130 -41 -90 -7 -91 -7 -71 -44 15 -30 15 -32
-6 -53 l-22 -21 7 34 c7 31 5 33 -11 26 -74 -30 -308 -56 -370 -41 -26 7 -27
9 -11 20 25 19 21 26 -14 26 -21 0 -39 -9 -58 -31 -25 -27 -32 -29 -50 -20
-32 17 -25 40 17 58 28 12 56 14 120 9 61 -5 91 -2 117 8 38 16 42 30 20 60
-8 11 -15 26 -15 33 0 7 42 40 93 75 50 34 154 108 230 165 191 142 269 186
417 233 69 21 167 55 218 74 50 18 92 32 92 30 0 -16 -225 -160 -284 -180 -22
-8 -76 -42 -120 -75 -88 -67 -117 -82 -245 -130 -135 -51 -341 -203 -341 -253
0 -8 -16 -28 -35 -45 -71 -62 -36 -50 146 52 146 82 226 117 265 117 34 0 71
20 166 91 44 32 92 62 106 65 41 8 103 38 180 88 189 121 199 103 37 -62 -106
-108 -131 -142 -105 -142 25 0 8 -62 -33 -122 -77 -112 -182 -182 -382 -254
-55 -20 -206 -87 -335 -149 -257 -124 -287 -135 -373 -135 -72 0 -243 25 -299
45 -23 8 -44 13 -46 11 -1 -2 7 -20 19 -40 20 -34 21 -41 9 -77 -12 -35 -11
-41 6 -60 10 -12 43 -35 71 -51 60 -34 73 -47 46 -49 -64 -4 -103 13 -178 75
-72 61 -97 76 -121 76 -13 0 -31 12 -42 27 -26 36 -56 26 -50 -17 3 -20 0 -30
-8 -30 -17 0 -37 37 -28 51 3 6 -2 19 -12 30 -21 23 -59 26 -50 4 9 -24 -10
-17 -27 9 -9 13 -37 34 -62 46 -31 15 -44 27 -41 37 7 18 -3 21 -89 30 -68 8
-70 9 -75 38 -7 38 -75 77 -172 100 -91 21 -112 19 -58 -6 62 -28 81 -47 74
-74 -3 -14 8 -56 30 -109 20 -47 36 -93 36 -101 0 -23 47 -113 96 -180 23 -33
54 -84 69 -113 19 -38 33 -54 53 -58 60 -15 63 -31 26 -115 -17 -38 -24 -67
-20 -83 7 -29 133 -131 217 -176 89 -47 102 -37 45 33 -100 124 -62 127 72 5
128 -116 161 -132 132 -65 -7 18 -14 46 -15 64 -3 54 -62 118 -117 128 -28 6
-49 26 -121 115 -33 41 -68 81 -78 88 -10 6 -20 27 -24 45 -4 20 -23 46 -52
73 -41 36 -46 45 -47 84 -1 36 3 46 22 56 34 17 35 19 12 64 -32 62 -19 69 35
19 55 -51 87 -98 114 -168 10 -28 35 -72 54 -98 19 -26 42 -64 50 -85 13 -30
27 -42 84 -68 97 -46 103 -53 103 -119 0 -74 32 -140 105 -216 31 -33 51 -49
43 -35 -88 152 -114 210 -97 210 6 0 77 -65 157 -143 165 -162 185 -176 210
-154 21 19 31 12 86 -56 21 -26 40 -46 41 -45 1 2 -3 39 -10 83 -15 107 -7
140 50 194 25 24 49 41 51 38 3 -3 -6 -38 -19 -79 -41 -119 -42 -116 33 -141
36 -12 86 -35 112 -50 77 -45 77 -82 -2 -247 -78 -163 -63 -175 30 -24 29 47
60 88 68 92 10 4 28 -9 54 -39 43 -50 44 -49 22 33 -21 84 -17 112 21 118 24
4 35 16 58 60 26 51 115 155 125 145 3 -3 -5 -36 -17 -75 -12 -38 -21 -84 -19
-102 l4 -33 22 50 c45 100 58 120 116 182 32 35 60 62 62 60 2 -2 -21 -60 -51
-129 -30 -69 -58 -140 -61 -159 l-6 -34 20 25 c11 13 59 99 107 190 87 166
120 218 132 206 4 -3 -7 -39 -24 -79 -39 -92 -44 -107 -34 -107 13 0 46 41 94
115 49 76 71 99 104 109 23 7 93 79 93 96 0 19 -14 10 -62 -37 -51 -50 -57
-48 -32 13 54 133 199 396 261 472 45 55 75 59 42 5 -54 -89 -73 -141 -60
-162 7 -10 13 -11 30 -2 11 7 21 8 21 4 0 -13 -55 -43 -78 -43 -36 0 -37 -22
-2 -50 24 -20 33 -35 32 -56 0 -16 -46 -121 -101 -233 -56 -113 -99 -207 -96
-209 15 -15 101 105 129 180 16 44 83 118 106 118 23 0 13 -23 -108 -251 -34
-64 -62 -119 -62 -123 0 -19 28 17 111 140 49 74 94 134 99 134 5 0 -7 -35
-26 -77 -39 -85 -56 -134 -49 -141 9 -9 45 46 116 178 117 219 156 267 262
316 35 17 49 34 27 34 -5 0 -10 9 -10 20 0 55 153 392 213 470 46 60 88 147
122 250 33 101 80 203 101 221 11 9 18 9 26 1 16 -16 -10 -86 -118 -316 -129
-271 -163 -355 -179 -441 -24 -125 -98 -258 -151 -271 -22 -6 -25 -11 -20 -34
4 -24 2 -27 -14 -23 -32 9 -107 -79 -259 -305 -79 -117 -145 -211 -148 -208
-3 2 0 21 7 41 12 38 9 52 -9 40 -16 -9 -91 -122 -91 -136 0 -7 9 -9 26 -5 40
10 62 -2 84 -44 28 -54 25 -77 -15 -144 -68 -113 -284 -376 -285 -347 0 20 41
88 137 225 46 65 83 122 83 127 0 39 -93 -52 -165 -162 -133 -202 -291 -494
-338 -624 -24 -69 -53 -212 -44 -221 2 -2 14 24 27 58 54 150 105 242 121 217
18 -30 -30 -167 -191 -549 -62 -146 -120 -287 -131 -315 l-19 -50 40 45 c42
48 76 107 85 153 8 38 40 35 81 -9 38 -40 44 -78 14 -94 -27 -15 -74 -86 -103
-158 -14 -34 -23 -62 -21 -62 3 0 17 15 32 33 63 76 136 147 152 147 11 0 43
36 81 92 35 50 79 108 97 127 32 35 32 36 48 16 29 -38 15 -62 -134 -245 -86
-106 -187 -249 -180 -256 2 -2 21 8 41 23 20 14 40 24 43 21 10 -11 -25 -66
-82 -127 -67 -72 -70 -73 -208 -31 -96 29 -189 39 -200 21 -3 -5 15 -16 39
-26 47 -17 71 -46 61 -72 -9 -23 11 -51 52 -72 43 -22 69 -48 73 -76 3 -13 28
-31 76 -55 81 -40 113 -65 113 -91 0 -14 -7 -16 -39 -12 -27 4 -52 -1 -87 -17
l-49 -23 37 -8 c53 -12 102 -45 201 -137 93 -87 185 -151 287 -202 107 -54
176 -106 276 -210 53 -54 109 -104 125 -110 37 -16 101 -111 128 -192 12 -35
25 -97 30 -139 12 -92 32 -152 79 -243 93 -179 241 -357 311 -376 52 -14 77
-35 108 -88 78 -137 137 -186 216 -180 34 2 42 7 42 23 0 16 -6 19 -26 17 -57
-7 -142 105 -156 203 -4 29 -12 49 -24 55 -23 13 -25 20 -49 180 -23 153 -43
231 -78 310 -46 104 -63 165 -73 255 -5 49 -14 94 -20 100 -16 15 -87 -69
-132 -157 -62 -120 -51 -200 13 -97 40 65 46 57 52 -73 4 -72 2 -103 -8 -115
-7 -10 -14 -39 -14 -65 0 -45 2 -49 40 -73 35 -22 65 -62 55 -73 -2 -2 -17 3
-33 12 -72 37 -147 164 -198 331 -24 80 -27 105 -26 225 l0 136 -44 24 c-25
13 -85 61 -134 107 -73 69 -95 97 -125 160 -28 59 -54 94 -118 157 -99 97
-162 135 -204 120 -19 -6 -29 -17 -31 -34 -6 -49 -9 -52 -41 -36 -49 26 -121
130 -121 176 0 27 42 110 69 134 17 15 29 17 71 12 45 -6 51 -5 48 11 -2 15 5
18 42 18 83 1 197 77 424 282 147 133 206 180 206 165 0 -12 -51 -80 -128
-171 -67 -80 -102 -135 -102 -160 0 -22 -55 -91 -72 -91 -6 0 1 15 14 33 41
53 43 61 16 43 -33 -21 -48 -57 -48 -110 0 -41 -2 -45 -37 -59 -21 -8 -64 -20
-96 -28 -32 -7 -60 -16 -63 -20 -7 -12 56 -26 200 -44 165 -21 307 -21 424 -1
51 9 97 14 101 11 5 -3 7 -14 4 -24 -3 -10 0 -22 6 -26 16 -9 75 12 96 35 24
26 43 25 47 -2 3 -20 8 -23 39 -20 31 3 47 -5 115 -58 81 -64 114 -96 114
-111 0 -14 -49 9 -90 41 -58 46 -142 63 -290 58 -102 -3 -132 -7 -160 -23 -69
-41 -45 -55 60 -35 64 12 76 6 50 -27 -28 -36 -25 -50 13 -57 17 -3 54 -24 82
-45 27 -22 53 -37 57 -35 4 3 8 20 8 38 0 19 6 38 13 44 30 25 147 26 147 1 0
-5 -10 -13 -22 -18 -77 -30 -74 -31 42 -26 l115 5 -77 -25 c-88 -29 -143 -68
-118 -85 26 -17 60 -11 84 15 39 42 140 65 201 45 67 -22 153 -150 140 -209
-4 -21 0 -34 19 -54 14 -15 33 -55 42 -89 14 -47 28 -71 60 -102 42 -41 52
-63 115 -250 11 -33 26 -101 34 -152 16 -96 22 -290 10 -302 -28 -28 -120 256
-132 408 -4 51 -14 91 -31 125 -57 115 -138 205 -184 205 -38 0 -37 -14 11
-147 21 -59 46 -144 56 -187 12 -55 24 -85 41 -101 l23 -22 -19 -36 -20 -37
20 0 c32 0 50 -56 50 -154 0 -76 3 -88 24 -111 20 -21 23 -32 16 -54 -12 -41
-29 -71 -70 -121 -57 -70 -57 -71 -6 -64 44 6 46 6 46 -19 0 -43 -10 -57 -42
-57 -43 0 -134 93 -143 146 -3 22 -15 59 -26 83 -12 25 -27 94 -35 160 -23
187 -52 327 -104 496 -17 55 -33 128 -37 162 -6 62 -22 91 -43 78 -5 -3 -10
-18 -10 -33 0 -32 -28 -95 -64 -149 -39 -57 -34 -91 10 -58 39 30 52 20 68
-57 23 -108 36 -188 36 -221 l0 -29 -50 7 c-41 6 -51 4 -56 -10 -9 -23 9 -80
26 -80 28 -1 40 -16 40 -51 0 -42 -23 -100 -53 -133 -21 -22 -20 -22 29 5 87
48 110 7 54 -95 -35 -63 -34 -62 -16 -55 19 7 90 -58 106 -96 7 -17 16 -30 20
-30 3 0 17 23 30 50 13 28 27 50 30 50 4 0 17 -42 29 -94 27 -114 46 -139 123
-156 52 -12 59 -11 111 13 58 26 93 66 83 93 -8 21 11 54 30 54 14 0 15 -8 9
-47 -14 -88 -15 -88 30 -85 52 4 91 -25 105 -79 21 -78 130 -169 202 -169 38
0 38 0 38 -39 0 -33 5 -44 33 -65 41 -31 126 -69 193 -86 42 -11 69 -11 145 0
179 24 444 113 468 158 6 11 34 35 63 52 132 80 208 160 268 280 44 88 44 100
6 192 -19 46 -37 101 -41 123 -12 66 -50 120 -186 262 -72 75 -137 149 -145
166 -20 38 -14 109 13 145 31 41 40 37 45 -21 5 -65 34 -123 97 -197 26 -30
84 -102 128 -160 95 -122 183 -212 183 -188 0 22 -79 137 -189 278 -199 252
-191 238 -161 288 25 40 38 40 87 -1 89 -74 303 -315 303 -341 0 -17 -34 -1
-86 39 -76 59 -92 58 -60 -3 21 -41 54 -67 131 -106 81 -40 143 -101 232 -226
34 -47 70 -94 82 -104 41 -37 23 9 -36 90 -118 163 -136 194 -115 194 5 0 39
-27 77 -60 122 -105 90 -55 -86 135 -105 114 -149 177 -149 215 0 58 -100 156
-147 145 -13 -3 -23 -1 -23 5 0 16 29 70 58 110 l26 35 11 -40 c13 -43 29 -55
40 -28 4 10 10 68 15 130 6 98 12 121 42 185 19 40 58 104 87 141 29 38 62 89
73 115 l21 46 -21 17 c-20 16 -20 18 -4 32 9 9 43 25 74 37 31 11 68 30 83 42
14 11 29 18 32 15 8 -9 -26 -63 -141 -227 -166 -234 -248 -382 -205 -368 8 2
27 23 42 46 16 23 33 40 38 36 13 -8 5 -43 -41 -189 -42 -131 -49 -168 -35
-174 9 -4 47 61 60 104 5 16 10 13 30 -22 41 -73 87 -123 197 -214 59 -49 110
-89 114 -89 3 0 -40 48 -96 108 -116 122 -145 168 -137 221 20 136 50 286 66
332 34 99 106 235 168 318 38 51 40 61 13 61 -24 0 -28 35 -4 44 16 6 74 -19
86 -38 16 -24 5 -47 -92 -181 -114 -160 -180 -279 -163 -296 16 -16 28 -5 52
44 26 52 49 82 56 75 14 -13 -70 -225 -116 -294 l-28 -41 22 -36 c25 -41 197
-230 204 -224 2 3 -21 38 -51 78 -31 41 -63 93 -72 117 l-17 43 69 135 c77
152 127 219 144 194 5 -8 12 -31 15 -50 14 -88 104 -230 205 -323 50 -46 68
-57 96 -57 19 0 34 -2 34 -3 0 -13 -63 -298 -71 -325 -6 -17 -17 -32 -24 -32
-21 0 -40 76 -36 143 1 9 8 17 16 17 8 0 15 7 15 16 0 23 -77 169 -101 190
-18 17 -20 17 -33 -1 -12 -17 -13 -16 -19 11 -3 16 -24 57 -46 89 -45 67 -124
158 -97 113 75 -128 112 -217 102 -244 -11 -30 -74 23 -118 99 -20 33 -48 50
-48 28 0 -14 57 -90 146 -196 126 -148 185 -276 183 -399 l0 -61 -22 43 c-16
32 -29 45 -50 49 -15 3 -43 23 -61 44 -66 77 -62 39 9 -97 51 -97 55 -110 55
-172 0 -81 -22 -312 -29 -312 -4 0 -18 35 -33 78 -45 126 -299 552 -329 552
-12 0 9 -41 65 -128 24 -37 51 -89 61 -117 17 -50 25 -168 12 -182 -4 -3 -21
3 -37 15 -16 12 -34 22 -40 22 -16 0 31 -82 130 -225 158 -228 228 -397 237
-567 6 -110 0 -144 -57 -298 -21 -59 -55 -162 -74 -230 -20 -69 -38 -131 -41
-137 -2 -7 -61 47 -132 121 -70 73 -129 132 -131 131 -2 -2 9 -22 23 -45 48
-77 114 -221 120 -265 4 -24 4 -53 0 -65 l-7 -22 -24 23 c-13 13 -60 75 -104
140 -44 64 -89 124 -100 134 -19 17 -20 17 -27 0 -4 -12 3 -36 19 -64 14 -25
40 -72 58 -104 24 -43 35 -78 41 -131 4 -40 18 -99 30 -132 12 -32 30 -81 40
-109 10 -27 18 -76 19 -109 l0 -59 -61 79 -62 79 7 -90 c9 -113 23 -179 48
-229 15 -30 22 -72 28 -173 9 -134 23 -188 50 -188 10 0 17 16 23 50 5 35 15
56 33 71 24 20 27 30 35 145 24 322 105 710 227 1084 78 240 111 371 112 438
0 31 -12 151 -26 265 -21 168 -25 229 -19 322 9 161 44 356 114 635 33 132 76
321 96 420 43 219 68 311 100 375 27 53 49 70 89 70 33 0 47 23 86 135 48 138
111 219 151 194 49 -31 99 26 206 236 50 98 89 163 91 153 2 -10 -6 -55 -17
-100 -28 -109 -28 -130 2 -126 14 2 23 11 25 25 4 28 6 28 49 2 19 -12 37 -18
41 -14 4 3 9 118 12 255 3 137 8 251 11 254 7 7 79 -69 79 -84 0 -5 -14 -17
-31 -25 -40 -21 -36 -51 8 -48 34 3 45 -6 76 -69 29 -56 58 -59 71 -6 14 55
-13 176 -69 310 -84 202 -86 208 -72 208 27 0 137 -123 137 -154 0 -42 190
-176 250 -176 34 0 13 20 -78 73 -108 64 -166 131 -71 81 43 -22 85 -20 119 4
41 31 57 28 79 -16 22 -42 126 -157 115 -127 -9 26 -41 169 -49 218 -6 35 -8
38 -33 32 -25 -5 -27 -3 -28 32 -1 24 -26 86 -68 173 -70 140 -79 185 -41 185
20 0 61 -69 108 -180 l16 -40 -2 100 c-4 112 -14 140 -93 251 -51 71 -61 113
-18 73 14 -13 39 -43 55 -66 30 -43 65 -70 77 -58 4 3 -10 37 -31 75 -20 37
-37 82 -37 99 0 31 4 34 64 43 16 3 14 8 -17 46 -20 24 -41 62 -47 85 -25 96
-47 149 -145 346 -115 228 -170 321 -190 321 -8 0 -17 15 -20 38 -8 45 -63
236 -139 474 -59 187 -80 294 -56 286 8 -2 27 -21 44 -41 22 -27 30 -49 32
-84 2 -29 11 -56 23 -72 36 -46 52 -93 71 -222 20 -134 30 -166 59 -208 11
-15 46 -92 79 -171 107 -258 245 -531 303 -600 l20 -25 -6 40 c-4 21 -29 89
-57 149 -58 127 -67 168 -45 191 15 14 15 20 -3 66 -24 59 -25 107 -5 173 28
92 14 170 -33 191 -15 6 -26 24 -33 50 -5 22 -21 67 -35 100 -75 173 -94 226
-104 290 -7 46 -17 75 -29 85 -10 8 -22 33 -26 55 -7 43 -34 99 -75 160 -15
22 -44 73 -65 113 -21 40 -50 82 -64 92 -50 38 -64 56 -104 138 -22 45 -43 82
-48 82 -12 0 -12 1 15 -151 38 -211 40 -233 21 -282 -15 -41 -15 -52 0 -162 9
-66 34 -199 56 -297 61 -278 53 -285 -63 -51 -46 91 -88 168 -94 170 -6 2 -17
-17 -24 -42 -7 -25 -16 -45 -20 -45 -4 0 -22 53 -40 118 -47 173 -69 239 -91
264 -16 20 -20 21 -29 8 -25 -37 2 -125 110 -363 43 -96 82 -188 86 -204 6
-25 5 -27 -9 -13 -15 14 -95 149 -163 275 -18 33 -58 134 -89 225 -112 325
-116 310 -20 -80 80 -325 92 -410 55 -410 -25 0 -46 32 -76 117 l-24 68 7 -65
c12 -113 11 -125 -14 -128 -31 -5 -30 -39 3 -142 14 -45 23 -84 20 -87 -3 -3
-20 3 -38 14 -81 47 -105 155 -48 215 17 17 30 37 30 44 0 33 -13 44 -51 44
-48 0 -55 12 -64 111 -8 90 1 173 21 194 13 13 10 25 -25 96 -23 45 -41 95
-41 110 0 28 -22 59 -42 59 -6 0 -31 16 -55 36 -24 20 -47 34 -50 31 -15 -15
23 -117 80 -217 35 -61 58 -183 60 -312 2 -91 -1 -110 -16 -125 -15 -16 -19
-16 -27 -3 -5 8 -10 29 -10 45 0 45 -11 75 -26 75 -18 0 -31 -26 -39 -82 -8
-53 -19 -62 -29 -23 -4 14 -13 202 -21 418 -8 216 -19 415 -24 444 -6 29 -22
75 -36 102 -26 52 -32 81 -16 81 12 0 41 -38 94 -120 44 -68 58 -76 69 -38 13
50 8 282 -8 338 -9 30 -21 103 -28 162 -12 104 -25 138 -52 138 -7 0 -21 11
-30 25 -19 29 -16 137 4 157 18 18 39 -7 45 -55 4 -34 14 -50 52 -85 56 -50
64 -77 64 -217 0 -99 6 -133 31 -187 15 -31 31 -35 50 -13 17 20 40 19 70 -5
29 -22 50 -26 50 -7 0 6 -18 41 -40 77 -22 36 -40 75 -40 87 0 30 74 73 125
73 l37 0 -6 43 c-5 32 -2 51 14 79 26 49 26 51 -11 92 -33 38 -56 103 -42 117
5 5 25 -10 46 -36 44 -53 67 -58 67 -16 0 42 -37 154 -61 185 -24 31 -17 34
18 6 23 -18 53 -27 53 -15 0 2 -11 30 -25 61 -14 32 -23 59 -20 62 10 10 63
-21 74 -44 8 -19 16 -23 35 -18 31 7 72 -14 137 -72 43 -38 56 -44 86 -42 l36
3 76 -140 c59 -108 91 -155 141 -206 36 -37 74 -85 84 -108 17 -37 41 -59 31
-28 -75 232 -95 302 -95 329 0 18 11 87 25 153 38 180 41 241 16 290 -23 43
-29 132 -11 166 6 10 19 19 30 19 21 0 50 -35 50 -62 0 -32 17 -19 38 30 32
76 83 244 80 264 -3 17 -6 16 -41 -7 -39 -27 -39 -27 -51 28 -13 55 -61 42
-49 -14 8 -39 -39 -73 -89 -65 -33 5 -38 4 -42 -16 -21 -110 -30 -139 -52
-171 -27 -41 -61 -54 -93 -37 -12 6 -44 42 -72 80 -31 43 -73 86 -112 112 -51
36 -65 52 -80 93 -21 59 -54 89 -115 105 -127 32 -131 57 -27 173 85 96 105
135 105 208 0 43 12 78 75 213 95 202 98 208 129 226 38 22 51 3 50 -72 -1
-56 0 -60 13 -42 57 76 72 150 49 247 -21 91 -20 132 5 166 27 37 24 96 -6 96
-14 0 -29 -16 -48 -52 -16 -29 -32 -53 -37 -53 -5 0 -16 10 -24 22 -12 17 -16
48 -16 120 0 121 17 172 65 192 38 16 62 64 94 186 28 106 57 174 71 165 6 -4
15 -17 20 -30 5 -14 20 -26 39 -30 33 -7 71 -47 71 -73 0 -30 29 10 49 67 14
41 16 61 9 82 -10 28 -89 109 -107 109 -11 0 -71 -61 -71 -72 0 -5 -5 -8 -11
-8 -43 0 81 633 151 769 21 42 26 86 11 95 -5 4 -22 -9 -37 -26z m-2932 -163
c1 -22 -292 -122 -316 -107 -17 10 42 50 107 71 67 23 186 51 200 47 5 -1 9
-6 9 -11z m266 -47 c117 -11 141 -19 106 -32 -11 -4 -15 -14 -11 -31 7 -37 -7
-39 -69 -11 -41 19 -73 26 -117 26 -53 0 -58 2 -43 13 17 13 17 15 -10 37 -29
23 -29 23 -4 16 14 -3 80 -11 148 -18z m-338 -97 c0 -12 -44 -29 -125 -45 -38
-8 -92 -22 -120 -30 -62 -20 -71 -20 -55 -2 11 14 120 53 205 74 52 13 95 14
95 3z m985 -105 c101 -46 207 -139 139 -122 -41 11 -230 107 -261 133 l-28 24
46 -4 c25 -2 72 -16 104 -31z m-208 -22 c8 -23 -12 -37 -42 -30 -33 8 -44 35
-20 52 20 15 52 3 62 -22z m-1137 21 c0 -18 -103 -85 -131 -85 -19 0 31 49 71
71 34 17 60 24 60 14z m475 -25 c15 -24 -112 -40 -160 -20 -21 8 -21 8 25 23
28 10 129 7 135 -3z m342 -50 c-115 -57 -168 -68 -220 -46 -50 20 -47 36 7 36
29 0 55 8 78 24 50 33 54 34 148 35 l85 0 -98 -49z m-377 -18 c0 -16 -195 -92
-234 -92 -20 0 -20 1 3 19 28 21 167 71 224 80 4 0 7 -3 7 -7z m869 -39 c75
-45 199 -148 225 -188 17 -26 18 -29 2 -41 -27 -19 -54 -5 -109 58 -29 32 -86
85 -128 118 -41 32 -81 65 -88 74 -25 30 31 18 98 -21z m-180 -20 l26 -18 -23
-3 c-24 -4 -83 26 -89 45 -6 16 50 0 86 -24z m-139 -8 c14 -17 0 -41 -35 -56
-13 -6 31 -8 120 -5 l140 4 -165 -44 -165 -44 -50 17 c-29 11 -51 25 -53 35
-4 21 60 65 131 89 64 22 62 22 77 4z m-429 -11 c79 -24 136 -54 118 -64 -8
-4 -66 -15 -129 -24 -150 -21 -191 -33 -197 -57 -11 -39 -101 -5 -125 47 -11
23 -10 28 7 40 10 8 31 14 46 14 39 0 79 17 79 34 0 8 6 17 13 19 27 12 137 6
188 -9z m-6387 -98 l-7 -31 -9 28 c-6 15 -7 40 -3 55 l7 27 9 -24 c6 -14 7
-39 3 -55z m5916 7 c-1 -14 -84 -71 -195 -132 -123 -69 -151 -79 -168 -62 -9
10 -7 17 11 31 34 28 165 99 252 137 76 33 100 39 100 26z m1145 -47 c24 -10
35 -22 35 -35 0 -12 16 -41 35 -67 39 -51 41 -60 19 -92 -22 -31 -29 -28 -43
21 -9 29 -31 60 -72 99 -32 32 -59 65 -59 73 0 19 40 20 85 1z m-494 -6 c30
-6 59 -17 65 -25 15 -21 68 -35 127 -35 68 0 73 -22 18 -71 -43 -39 -46 -59
-10 -59 43 0 5 -19 -64 -32 l-72 -13 55 -6 c30 -4 81 -7 112 -8 31 -1 59 -5
62 -10 4 -5 -15 -18 -41 -28 -70 -26 -220 -24 -290 5 -130 54 -157 63 -177 59
-16 -3 -2 -13 54 -41 45 -22 63 -35 45 -31 -88 16 -184 17 -252 1 -89 -20 -78
-21 -107 11 -20 22 -36 27 -85 31 -33 2 -68 1 -77 -2 -15 -6 -15 -8 2 -27 51
-56 146 -69 529 -69 243 1 360 7 450 26 l30 6 -23 -25 c-23 -24 -23 -26 -5
-36 14 -9 4 -10 -44 -5 -54 5 -63 4 -63 -11 0 -20 57 -45 102 -45 115 0 229
-146 318 -411 41 -122 48 -189 26 -279 -40 -163 -111 -293 -228 -418 -80 -84
-86 -99 -67 -149 7 -17 11 -88 10 -176 l-1 -148 32 -29 32 -29 -87 -85 c-48
-46 -87 -89 -87 -95 0 -21 26 -11 80 29 56 42 75 48 83 28 3 -9 23 -3 67 20
75 39 84 34 74 -48 -5 -47 -11 -59 -40 -83 -19 -16 -48 -50 -66 -75 -49 -74
-79 -102 -108 -102 -14 0 -37 -7 -50 -16 -51 -34 -150 -139 -160 -170 -13 -38
-36 -55 -107 -78 -29 -10 -82 -39 -119 -67 -71 -52 -89 -57 -120 -34 -25 19
-53 19 -74 0 -41 -37 -267 -60 -306 -30 -10 8 -36 15 -58 15 -33 0 -44 7 -81
46 -41 45 -44 47 -89 42 -53 -6 -60 0 -91 76 l-21 51 -55 -2 -56 -3 -6 51 c-4
28 -27 101 -52 163 -25 62 -50 140 -55 172 -14 86 -12 207 6 299 27 136 27
144 10 170 -36 54 -5 124 48 111 30 -7 51 18 61 76 12 62 0 87 -50 109 -49 22
-65 19 -65 -12 0 -12 -7 -19 -19 -19 -22 0 -38 17 -43 45 -2 17 2 20 30 17 31
-2 32 -1 21 20 -7 13 -34 51 -61 86 -26 35 -48 70 -48 79 0 8 6 41 14 72 8 31
16 67 20 81 3 14 19 33 36 43 24 15 30 25 30 53 0 19 4 34 9 34 29 0 73 -28
131 -85 76 -73 123 -91 210 -81 96 11 247 65 223 79 -5 3 -27 2 -48 -3 -21 -5
-42 -7 -46 -4 -4 2 1 23 11 47 28 60 25 99 -11 163 -38 66 -30 85 24 59 49
-23 154 -135 178 -189 11 -25 27 -50 36 -55 12 -6 16 -20 15 -44 -3 -43 11
-54 81 -69 43 -9 62 -9 82 0 29 13 28 6 9 116 -5 27 -1 39 24 67 16 19 38 55
49 80 16 35 35 55 82 87 72 48 158 82 207 82 52 0 35 -13 -63 -50 -59 -22 -98
-44 -120 -66 -34 -36 -58 -96 -49 -120 3 -8 42 -31 86 -51 44 -20 80 -40 80
-45 0 -4 -11 -13 -25 -20 -64 -29 24 -37 135 -12 84 19 177 76 210 129 18 30
22 45 17 85 l-6 49 83 -6 c71 -5 84 -3 89 11 10 25 -9 63 -69 141 -29 39 -54
76 -54 83 0 16 -63 31 -163 39 -80 5 -89 4 -107 -15 -45 -48 -347 -87 -601
-77 -165 7 -215 3 -203 -17 4 -5 44 -27 90 -49 46 -21 84 -43 84 -49 0 -15 -7
-14 -151 32 l-133 42 -106 -27 c-109 -28 -170 -34 -170 -17 0 6 11 10 25 10
15 0 31 9 41 25 15 23 15 27 -5 68 -25 52 -26 61 -5 81 21 22 59 20 111 -5 50
-24 54 -41 16 -74 l-28 -24 55 -1 c71 0 100 19 100 65 0 61 -91 113 -177 101
-68 -9 -138 -49 -277 -157 -70 -54 -132 -99 -137 -99 -5 0 -9 15 -9 33 0 64
96 175 233 269 96 65 158 89 223 87 55 -2 58 -1 95 38 21 23 41 54 45 69 19
74 -56 77 -229 10 -65 -25 -123 -46 -130 -46 -19 1 22 29 105 71 43 21 85 50
94 64 12 19 22 23 39 19 19 -5 27 0 39 25 17 32 43 51 72 51 14 0 12 -6 -12
-31 l-29 -32 35 6 c19 4 60 9 90 13 l55 6 -45 -41 -45 -40 35 -1 c23 0 55 12
94 35 68 41 131 61 168 52 33 -9 41 -29 21 -57 -14 -20 -22 -22 -72 -17 l-56
6 35 -22 c48 -30 90 -26 213 22 102 40 246 80 297 82 57 3 -36 17 -121 18
-123 2 -249 28 -249 52 0 16 44 31 114 39 106 11 128 11 187 0z m-1121 -21 c0
-13 -133 -152 -172 -181 -33 -23 -53 -16 -38 13 16 29 76 86 142 135 66 48 68
49 68 33z m2680 -58 c0 -17 -28 -31 -101 -49 -99 -25 -153 -50 -223 -105 -71
-56 -133 -87 -186 -94 -33 -5 -40 -3 -40 11 0 28 19 56 45 66 16 6 25 18 27
37 2 21 9 29 28 31 52 6 68 12 72 30 4 14 23 21 88 31 45 8 112 22 148 31 73
20 142 25 142 11z m-1205 -80 c67 -39 152 -116 187 -170 27 -43 37 -81 20 -81
-35 0 -272 236 -272 271 0 14 12 11 65 -20z m-2185 -31 c0 -15 8 -22 29 -26
26 -6 30 -11 33 -46 3 -36 6 -41 41 -53 43 -15 87 -51 87 -72 0 -8 -15 -20
-32 -28 l-33 -13 40 -7 c47 -9 66 -21 59 -39 -3 -7 5 -33 18 -57 21 -39 23
-58 23 -176 0 -72 -3 -135 -8 -139 -15 -15 -78 62 -127 156 -57 109 -63 118
-107 148 -18 13 -34 35 -38 52 -4 17 -35 61 -70 99 -82 90 -91 106 -72 134 13
20 127 87 148 87 5 0 9 -9 9 -20z m3323 -240 c-3 -11 -9 -17 -14 -14 -11 6
-12 68 -2 78 10 10 22 -39 16 -64z m-453 -60 c0 -38 -90 -250 -107 -250 -13 0
5 138 24 180 33 72 83 115 83 70z m383 -124 c-3 -103 -146 -461 -183 -461 -33
0 -16 77 49 214 34 72 72 170 83 217 17 65 25 84 37 82 12 -3 16 -15 14 -52z
m-3428 -58 c22 -42 43 -79 47 -83 3 -4 4 21 1 54 -5 57 -5 61 16 61 25 0 56
-46 66 -97 6 -36 49 -140 134 -333 28 -64 46 -117 40 -118 -18 -7 -152 113
-207 184 -97 126 -189 344 -169 398 12 30 31 13 72 -66z m1663 -67 c10 -6 8
-10 -8 -14 -25 -6 -50 1 -50 14 0 11 41 11 58 0z m-1128 -97 c0 -34 -4 -53
-10 -49 -5 3 -10 28 -10 56 0 27 5 49 10 49 6 0 10 -25 10 -56z m1180 35 c8 0
4 -4 -10 -8 -14 -5 -41 -6 -60 -3 -33 5 -34 6 -10 13 14 4 34 6 45 3 11 -2 27
-4 35 -5z m612 -6 c10 -9 18 -22 18 -30 0 -18 -35 -17 -54 3 -36 36 -2 62 36
27z m-1202 -93 c11 -7 3 -10 -28 -10 -26 0 -41 4 -37 10 8 13 45 13 65 0z
m1035 -20 c0 -31 -29 -39 -56 -14 -32 29 -24 46 19 42 32 -3 37 -6 37 -28z
m865 3 c0 -33 -42 -173 -52 -173 -14 0 -5 138 11 168 14 26 41 30 41 5z m-196
-52 c3 -5 -6 -73 -19 -152 -22 -120 -32 -154 -66 -218 -22 -42 -54 -92 -70
-111 l-30 -35 7 34 c3 19 24 77 46 130 43 102 78 226 78 273 0 51 38 106 54
79z m-504 -45 c0 -21 -81 -56 -130 -56 -59 0 -42 16 47 46 81 28 83 28 83 10z
m-6760 -70 c0 -19 -4 -38 -10 -41 -6 -4 -10 10 -10 34 0 23 5 41 10 41 6 0 10
-15 10 -34z m5661 -27 c29 -15 13 -29 -35 -29 -41 0 -74 19 -59 33 10 11 72 8
94 -4z m1853 -96 c-1 -50 -8 -76 -42 -144 -23 -46 -61 -104 -84 -129 -38 -41
-43 -43 -46 -23 -2 12 15 54 37 95 21 40 49 107 61 148 39 134 76 160 74 53z
m-2464 -19 c16 -33 19 -49 12 -56 -8 -8 -17 1 -31 33 -12 24 -21 50 -21 57 0
26 19 10 40 -34z m-5031 -155 c16 -71 15 -202 -1 -197 -21 7 -59 138 -53 182
7 46 23 79 35 71 4 -3 13 -28 19 -56z m4667 -25 c10 -14 19 -47 22 -73 4 -43
1 -51 -29 -86 -39 -44 -147 -117 -161 -109 -5 3 2 20 17 37 56 69 76 109 81
160 9 85 13 97 34 97 11 0 27 -12 36 -26z m458 -116 c26 -42 46 -131 46 -210
0 -91 -10 -118 -45 -118 -45 0 -73 73 -39 101 15 12 16 29 10 131 -7 121 -1
141 28 96z m2091 -115 c-16 -86 -147 -345 -177 -351 -33 -6 -28 32 12 112 22
45 40 93 40 108 0 26 22 58 40 58 5 0 24 25 42 55 38 64 53 70 43 18z m-7202
10 c9 -9 -22 -43 -40 -43 -13 0 -18 31 -6 43 8 9 38 9 46 0z m4735 -20 c-62
-67 -54 -101 21 -84 22 5 41 6 41 2 0 -4 -33 -34 -72 -66 -40 -33 -104 -89
-142 -125 -51 -48 -67 -59 -61 -41 8 25 4 25 -70 4 -32 -9 -7 12 96 80 136 91
133 115 -6 52 -42 -19 -98 -40 -123 -46 -26 -5 -89 -28 -139 -50 -51 -21 -100
-39 -108 -39 -40 0 -4 26 156 113 36 20 77 48 92 63 17 17 39 27 61 29 20 1
64 20 107 46 155 95 193 111 147 62z m3050 -27 c26 -13 63 -40 81 -60 33 -34
33 -36 13 -36 -40 0 -192 85 -192 108 0 20 47 14 98 -12z m-838 -182 c-24
-104 -32 -119 -55 -110 -14 5 -15 14 -10 48 15 89 58 179 77 160 6 -6 2 -41
-12 -98z m-2040 8 c0 -26 -51 -102 -94 -139 -51 -46 -70 -57 -161 -98 l-80
-36 50 51 c62 64 264 240 276 240 5 0 9 -8 9 -18z m3180 -59 c107 -71 235
-178 217 -181 -24 -5 -221 91 -283 138 -47 35 -81 89 -67 104 9 8 72 -21 133
-61z m-254 4 c50 -39 134 -130 134 -145 0 -21 -21 -23 -62 -4 -62 29 -136 106
-153 160 -10 34 31 29 81 -11z m-317 -101 c179 -240 220 -337 110 -263 -47 31
-100 111 -147 220 -74 171 -66 180 37 43z m-2449 25 c0 -28 -4 -53 -10 -56 -6
-4 -10 15 -10 49 0 31 5 56 10 56 6 0 10 -22 10 -49z m-890 -86 c47 -57 -114
-189 -356 -292 -56 -24 -123 -46 -150 -49 l-49 -5 22 19 c13 11 109 64 215
117 201 101 288 151 288 165 0 5 -15 4 -32 -1 -46 -13 -52 -11 -37 8 14 16 69
53 80 53 4 0 12 -7 19 -15z m3159 -290 c38 -149 73 -288 77 -310 l7 -40 -22
19 c-31 28 -86 149 -110 240 -20 77 -46 140 -77 187 -16 25 -16 28 4 71 12 24
22 47 22 51 0 13 21 60 25 55 2 -2 36 -125 74 -273z m-2616 153 c-60 -86 -66
-98 -50 -98 16 0 54 27 111 79 46 42 42 35 -35 -73 -69 -95 -96 -164 -79 -197
10 -18 18 -21 52 -16 62 8 128 81 128 141 0 30 16 42 35 26 27 -22 16 -56 -45
-140 -33 -46 -60 -90 -60 -98 0 -9 7 -23 16 -33 15 -17 15 -20 -10 -49 -14
-18 -26 -44 -26 -58 0 -50 -21 -104 -55 -140 -18 -20 -36 -34 -40 -30 -4 4 0
37 9 74 8 38 13 70 12 72 -2 2 -19 -15 -37 -37 -18 -23 -36 -41 -39 -41 -8 0
0 46 30 174 11 49 19 91 17 93 -9 9 -97 -98 -97 -119 -1 -30 -18 -52 -77 -96
-102 -76 -218 -236 -227 -312 -5 -48 -88 -122 -117 -105 -6 5 -8 -10 -3 -42 5
-43 3 -53 -18 -78 -20 -22 -37 -29 -88 -37 -71 -9 -123 -35 -128 -62 -3 -15 1
-18 22 -14 29 6 34 -3 11 -22 -10 -8 -29 -10 -55 -6 -36 6 -41 4 -49 -18 -9
-23 -67 -74 -125 -111 l-28 -19 27 55 c35 69 76 128 131 190 24 27 44 59 44
69 0 15 7 20 28 20 73 0 256 181 427 421 60 85 131 182 157 216 61 82 90 203
48 203 -6 0 -73 -63 -149 -140 -93 -95 -144 -140 -159 -140 -12 0 -22 3 -22 8
0 44 361 425 501 528 44 32 49 15 12 -38z m-224 -4 c-35 -37 -68 -55 -82 -47
-4 3 18 24 50 48 32 24 60 42 62 39 3 -2 -11 -20 -30 -40z m-249 1 c-31 -32
-70 -47 -70 -27 0 11 41 48 60 55 38 14 42 5 10 -28z m4336 -13 c32 -21 97
-71 143 -111 100 -87 137 -111 173 -111 25 0 58 -30 58 -53 0 -5 -28 -6 -61
-2 l-62 7 7 -26 c15 -60 19 -116 8 -116 -6 0 -39 42 -73 93 -77 115 -101 142
-187 216 -60 52 -112 114 -112 135 0 18 54 1 106 -32z m-689 17 c64 -24 213
-164 213 -200 0 -20 -31 -7 -40 16 -9 24 -12 25 -65 19 -49 -6 -59 -4 -80 16
-26 25 -54 21 -57 -7 -1 -10 -2 -54 -2 -98 -1 -67 -4 -80 -18 -83 -29 -6 -38
39 -38 183 0 108 3 137 16 149 18 19 33 20 71 5z m337 -78 c76 -68 112 -90
170 -107 41 -12 43 -30 7 -49 -28 -14 -34 -14 -60 0 -60 30 -211 186 -211 217
0 18 21 5 94 -61z m-3890 44 c11 -11 12 -23 6 -46 -9 -31 -9 -31 21 -25 l30 6
-32 -32 c-17 -18 -40 -52 -51 -77 -37 -86 -80 -113 -181 -116 -62 -2 -79 -8
-214 -74 -80 -39 -147 -70 -150 -68 -12 12 184 180 345 296 56 40 115 86 130
103 24 26 54 46 74 47 4 1 13 -6 22 -14z m-844 -133 c0 -25 -19 -42 -47 -42
-29 0 -30 24 -1 44 30 21 48 20 48 -2z m4020 -57 c0 -30 -4 -55 -10 -55 -11 0
-14 93 -3 103 12 12 13 8 13 -48z m540 -42 c55 -87 30 -94 -32 -9 -32 44 -35
56 -13 56 9 0 29 -21 45 -47z m324 -22 c9 -13 -32 -44 -49 -37 -13 4 -14 10
-5 26 11 20 44 27 54 11z m284 -24 c2 -15 -1 -27 -6 -27 -16 0 -44 38 -37 50
12 20 40 6 43 -23z m-3508 -12 c17 -20 5 -45 -20 -45 -23 0 -35 22 -26 45 7
19 30 19 46 0z m2467 -112 c20 -32 52 -100 70 -153 19 -52 39 -99 44 -104 5
-6 9 15 9 57 0 37 4 67 8 67 4 0 13 -24 19 -52 6 -29 33 -114 61 -188 28 -75
59 -186 72 -250 12 -63 23 -121 26 -128 9 -30 -19 -3 -75 71 -32 43 -79 121
-105 172 -87 176 -196 479 -196 547 0 35 31 17 67 -39z m-2588 26 c13 -14 28
-20 47 -17 40 4 41 -16 5 -107 -35 -85 -39 -146 -16 -202 20 -47 28 -36 49 56
25 117 98 233 127 204 11 -11 0 -46 -45 -148 -26 -58 -32 -83 -24 -92 16 -20
43 1 56 44 11 36 76 112 87 102 2 -3 0 -21 -5 -40 -30 -104 -32 -377 -3 -386
7 -3 23 17 36 43 13 26 27 42 31 36 8 -13 33 -179 42 -279 4 -41 10 -71 14
-66 4 4 15 37 25 73 31 115 60 148 86 99 12 -23 10 -56 -16 -209 -19 -119 -31
-407 -14 -370 6 14 17 81 25 150 16 134 44 259 74 326 34 78 63 68 63 -20 0
-31 4 -56 8 -56 5 0 21 19 36 43 38 59 74 97 92 97 9 0 36 -9 60 -20 l44 -20
-6 -54 c-3 -30 -3 -57 0 -59 2 -3 18 -1 35 5 48 17 53 3 39 -109 -7 -54 -21
-131 -32 -171 -10 -40 -19 -75 -19 -78 0 -12 82 6 122 27 l40 21 -37 34 c-34
31 -37 37 -30 71 4 21 13 49 20 64 18 34 64 89 75 89 5 0 21 -21 36 -46 15
-26 30 -42 35 -37 5 5 16 45 24 88 9 43 18 81 20 84 3 2 5 -32 5 -76 0 -91 19
-165 51 -199 46 -49 48 -34 19 194 -24 189 -24 355 0 360 38 7 82 -123 131
-387 16 -91 35 -173 40 -183 18 -33 29 -19 29 40 1 43 3 53 11 40 6 -12 22
-18 45 -18 26 0 37 -5 44 -22 5 -13 14 -131 19 -263 9 -235 18 -301 44 -292 8
3 11 22 7 68 -9 117 -4 363 9 434 14 79 24 95 56 95 43 0 50 -24 47 -149 -1
-64 2 -138 9 -166 13 -56 57 -145 72 -145 6 0 7 33 3 88 -3 48 -8 132 -11 187
l-5 100 32 -127 c53 -204 62 -193 66 85 2 164 0 207 -9 192 -30 -52 -69 -50
-69 4 0 23 -21 122 -36 176 -8 27 55 -33 102 -96 50 -68 62 -111 90 -328 23
-171 25 -219 21 -376 -10 -319 -60 -615 -103 -615 -23 0 -28 65 -7 96 15 24
18 51 20 174 2 158 -1 163 -16 23 -10 -94 -33 -157 -54 -150 -34 10 -76 234
-83 437 -5 146 -13 180 -33 142 -14 -26 -31 -181 -31 -287 -1 -95 -12 -152
-35 -168 -10 -8 -19 -37 -25 -76 -21 -147 -66 -82 -70 99 l-1 55 -30 -70 c-17
-38 -55 -143 -84 -232 -59 -179 -79 -223 -99 -223 -21 0 -28 26 -33 125 -14
292 -41 140 -59 -332 -4 -99 -10 -187 -14 -193 -13 -21 -47 -1 -65 36 -10 21
-22 93 -31 177 -8 78 -18 184 -24 236 -8 88 -14 110 -24 100 -14 -13 -29 -167
-35 -344 -4 -110 -10 -207 -15 -216 -5 -13 5 -20 51 -35 l58 -19 -79 -3 c-43
-2 -79 -2 -81 0 -2 4 9 173 30 438 8 107 15 227 15 265 -1 62 -2 68 -15 52
-12 -16 -21 -50 -41 -145 -3 -13 -34 -54 -69 -92 -35 -38 -68 -81 -72 -97 -9
-36 -10 -260 0 -295 5 -18 17 -30 42 -38 36 -12 50 -37 40 -70 -8 -26 -25 -25
-83 4 -79 40 -83 49 -72 147 13 111 13 271 -1 306 -5 15 -20 35 -32 45 -24 19
-19 37 29 96 l27 33 -50 -7 c-30 -3 -53 -2 -56 4 -4 5 -9 60 -12 123 -7 132
-18 198 -47 289 -52 164 -140 274 -269 337 -100 48 -157 58 -309 55 -171 -3
-200 2 -200 31 0 12 11 78 25 147 28 142 33 260 11 260 -7 0 -30 -27 -51 -61
-20 -33 -39 -59 -41 -56 -2 2 7 41 21 87 49 162 22 142 -51 -39 -105 -263
-133 -373 -99 -401 21 -18 0 -41 -35 -38 -19 1 -45 -12 -91 -48 -106 -83 -189
-131 -189 -108 0 19 87 125 113 138 72 34 154 214 241 529 30 105 57 206 60
223 l7 31 -78 7 c-102 8 -123 15 -123 36 0 10 29 77 65 150 80 160 105 234
105 300 0 104 103 240 182 240 15 0 36 -9 47 -21z m3080 -80 c40 -51 49 -69
33 -69 -10 0 -73 66 -96 100 -43 64 6 40 63 -31z m-1185 25 c20 -20 21 -53 1
-60 -21 -8 -45 14 -45 41 0 37 18 45 44 19z m-2994 -54 c0 -13 -138 -128 -182
-151 -73 -38 -114 -14 -57 33 25 21 221 127 237 128 1 0 2 -4 2 -10z m3225
-32 c8 -18 26 -79 40 -134 14 -56 34 -123 45 -149 23 -55 25 -65 7 -65 -15 0
-59 45 -76 77 -35 69 -67 303 -41 303 6 0 17 -15 25 -32z m-3025 -7 c0 -36
-297 -342 -367 -380 -37 -19 -27 0 43 84 71 85 98 130 89 145 -3 6 4 10 17 10
32 0 45 11 54 44 5 20 18 33 48 46 22 10 52 29 65 44 29 31 51 34 51 7z m3943
-68 c83 -136 137 -271 123 -308 -20 -52 -110 106 -146 255 -19 83 -24 110 -16
110 2 0 19 -26 39 -57z m-1326 0 c33 -81 65 -283 44 -283 -14 0 -31 51 -40
125 -5 39 -16 87 -25 109 -18 44 -21 86 -5 86 5 0 17 -17 26 -37z m-6207 -67
c32 -19 33 -21 12 -24 -24 -4 -83 26 -89 45 -5 15 32 5 77 -21z m660 2 c45
-22 45 -22 15 -25 -16 -2 -82 8 -145 21 l-115 24 100 1 c84 0 107 -3 145 -21z
m1857 5 c6 -16 -26 -43 -42 -37 -20 8 -19 24 3 40 19 15 34 14 39 -3z m-1459
-20 c38 -9 24 -21 -35 -29 -112 -14 -333 12 -253 30 14 3 39 7 55 10 35 5 200
-2 233 -11z m2824 -55 c-35 -63 -61 -78 -38 -23 21 49 59 101 64 87 2 -7 -9
-36 -26 -64z m-1882 22 c0 -5 -3 -10 -7 -10 -5 -1 -33 -23 -63 -51 l-55 -50
88 42 c48 23 90 40 92 37 2 -2 -4 -18 -15 -35 -35 -59 -55 -65 -233 -73 -89
-5 -200 -11 -247 -14 l-85 -6 65 19 65 18 -92 7 c-51 5 -93 11 -93 15 0 12 65
31 106 31 22 0 61 -7 87 -16 59 -20 101 -12 252 50 115 47 135 52 135 36z
m4474 -69 c15 -67 22 -170 10 -159 -9 10 -32 105 -39 167 -10 85 9 79 29 -8z
m-440 23 c20 -20 21 -53 1 -60 -21 -8 -45 14 -45 41 0 37 18 45 44 19z m-412
-71 c8 -16 18 -45 22 -65 7 -41 -11 -171 -24 -163 -8 5 -26 91 -36 177 -9 80
8 102 38 51z m-2504 -30 c-2 -19 -10 -29 -28 -34 -37 -10 -128 -10 -134 0 -11
17 22 32 56 26 23 -4 42 0 63 14 41 26 47 26 43 -6z m3442 -38 c0 -24 -4 -47
-10 -50 -6 -4 -10 15 -10 50 0 35 4 54 10 50 6 -3 10 -26 10 -50z m-3229 -23
c-29 -57 -90 -106 -200 -161 -54 -28 -136 -75 -180 -105 -45 -31 -81 -52 -81
-48 0 21 64 105 97 128 117 79 180 113 210 112 23 -1 47 11 87 41 30 23 60 49
67 57 20 24 20 15 0 -24z m3768 20 c16 -30 31 -204 31 -369 0 -87 5 -223 11
-303 15 -194 15 -195 -20 -286 -29 -75 -88 -181 -96 -173 -2 3 3 33 10 69 18
84 20 571 2 680 -20 128 -10 341 20 393 8 13 32 7 42 -11z m-666 -29 c9 -8
-22 -43 -39 -43 -20 0 -27 19 -14 35 13 16 42 20 53 8z m-294 -76 c10 -26 2
-169 -9 -162 -11 7 -33 161 -26 174 11 18 26 13 35 -12z m354 -1 c7 -18 -3
-56 -14 -56 -5 0 -9 16 -9 35 0 35 13 47 23 21z m-1393 -39 c0 -7 -5 -18 -12
-25 -18 -18 -36 -15 -48 7 -7 15 -6 23 6 35 12 12 20 13 35 6 10 -6 19 -16 19
-23z m-5258 11 c10 -8 18 -34 20 -68 4 -41 15 -71 43 -118 26 -44 35 -66 28
-73 -17 -17 -50 7 -98 73 -48 64 -55 92 -29 102 13 5 15 16 12 51 -6 47 -2 53
24 33z m3918 -49 c6 -23 9 -53 5 -68 -6 -26 -267 -558 -313 -639 -62 -109 -26
-2 135 398 114 284 143 350 154 350 5 0 13 -19 19 -41z m-951 -35 c-13 -14
-71 -54 -127 -87 -57 -34 -140 -95 -184 -135 -45 -40 -123 -102 -174 -137
-127 -89 -161 -135 -105 -143 26 -4 134 53 213 114 62 48 65 53 46 85 -11 18
-10 23 11 40 37 30 52 18 40 -31 -3 -11 3 -14 21 -12 42 5 75 36 75 69 1 45
22 65 64 61 33 -3 36 -6 36 -33 0 -27 -14 -39 -178 -151 -167 -114 -242 -172
-233 -182 3 -2 41 21 86 52 88 60 123 69 140 35 7 -11 10 -22 8 -25 -11 -11
-186 -86 -264 -114 -76 -26 -97 -39 -141 -84 -51 -52 -151 -126 -171 -126 -16
0 -24 50 -12 84 5 17 23 40 40 49 20 12 33 31 40 58 8 29 22 48 50 67 46 32
64 62 55 91 -9 29 -20 27 -70 -15 -63 -51 -174 -80 -213 -55 -10 6 -5 11 17
21 32 13 40 33 19 47 -7 4 -53 13 -103 19 -99 13 -145 27 -145 45 0 8 31 9
118 3 64 -5 149 -9 189 -9 72 0 72 0 120 46 56 52 104 89 152 113 l34 18 -7
-25 c-3 -14 -9 -32 -12 -41 -14 -37 42 -10 224 106 303 194 401 246 341 182z
m1385 -33 c3 -5 -7 -38 -23 -73 -16 -34 -67 -148 -114 -252 -47 -103 -94 -197
-103 -207 -11 -12 -31 -19 -55 -19 -33 0 -40 -4 -54 -33 -9 -19 -29 -49 -45
-68 -25 -29 -29 -31 -29 -14 -1 33 45 122 72 139 13 9 31 14 39 11 20 -8 43
30 108 180 117 268 181 374 204 336z m2526 -59 c0 -20 -5 -44 -10 -52 -7 -11
-10 2 -10 43 0 36 4 56 10 52 6 -3 10 -23 10 -43z m-101 -64 c-1 -65 -3 -74
-8 -42 -7 39 -3 124 5 124 2 0 3 -37 3 -82z m-5830 48 c30 -16 91 -80 91 -96
0 -6 -9 -10 -20 -10 -26 0 -25 -13 5 -58 38 -56 32 -78 -13 -46 -29 20 -52 66
-46 91 4 16 -7 34 -45 72 -28 28 -51 53 -51 56 0 11 52 4 79 -9z m5385 -8 c18
-68 -3 -134 -40 -127 -25 5 -31 64 -10 113 17 41 41 47 50 14z m-3949 -47
c-20 -20 -147 -81 -168 -81 -21 0 -21 0 -2 20 11 11 52 31 90 44 77 28 94 31
80 17z m1115 -10 c0 -13 -80 -75 -87 -67 -7 7 64 76 78 76 5 0 9 -4 9 -9z
m-1546 -120 c9 -13 -39 -41 -70 -41 -35 0 -134 31 -134 42 0 11 197 10 204 -1z
m1316 -21 c0 -11 6 -29 12 -40 11 -17 8 -25 -27 -60 -48 -49 -61 -51 -34 -5
l21 35 -27 10 c-14 5 -31 10 -36 10 -21 0 -1 26 37 47 48 28 54 28 54 3z
m-3096 -22 c5 -15 7 -30 3 -34 -9 -10 -52 3 -77 24 -31 25 -18 44 28 40 30 -2
38 -8 46 -30z m363 5 c7 -19 -35 -105 -48 -97 -12 7 -11 71 1 95 13 23 38 25
47 2z m3763 -39 c0 -27 -20 -54 -40 -54 -24 0 -26 18 -4 48 18 25 44 29 44 6z
m2670 -19 c0 -19 -4 -35 -10 -35 -5 0 -10 16 -10 35 0 19 5 35 10 35 6 0 10
-16 10 -35z m-6340 -15 c8 -31 -4 -201 -12 -180 -13 29 -28 122 -28 166 0 37
3 45 17 42 9 -2 19 -14 23 -28z m960 -50 c14 -15 57 -43 95 -63 90 -45 120
-69 112 -90 -4 -10 -17 -17 -31 -17 -43 0 -336 165 -336 189 0 13 46 19 95 13
26 -4 49 -15 65 -32z m1321 -59 c12 -56 -2 -111 -41 -160 -36 -47 -86 -85 -94
-73 -3 5 8 37 25 72 16 34 28 64 27 66 -2 1 -23 -11 -48 -27 -91 -61 -69 12
36 120 70 72 79 72 95 2z m228 -41 c5 0 20 9 34 20 34 27 50 26 42 -2 -27 -88
-112 -247 -148 -277 -15 -12 -17 -11 -17 11 0 13 11 57 25 96 27 77 31 107 15
117 -17 11 -53 -22 -115 -105 -299 -396 -439 -560 -478 -560 -12 0 -25 16 -38
46 -17 38 -19 50 -9 74 14 34 125 155 114 125 -4 -11 -14 -39 -23 -63 -12 -31
-13 -47 -5 -59 18 -28 33 -26 51 7 49 89 106 167 185 254 49 53 94 111 101
129 18 42 129 189 169 222 l31 27 29 -31 c16 -17 33 -31 37 -31z m-2396 32
c19 -21 54 -149 43 -159 -10 -10 -57 38 -72 74 -15 34 -19 85 -7 96 10 11 19
8 36 -11z m6345 -24 c44 -44 -37 -831 -96 -932 -16 -27 -18 51 -7 224 7 107
16 278 19 380 9 246 15 307 33 325 18 18 35 19 51 3z m-5152 -62 c-8 -44 2
-70 58 -137 48 -58 56 -79 32 -79 -45 0 -165 142 -166 197 0 24 34 53 63 53
16 0 18 -5 13 -34z m2554 5 c0 -22 -35 -55 -49 -46 -17 10 -13 29 10 53 22 24
39 21 39 -7z m-2950 -21 c21 -21 27 -60 9 -60 -14 0 -69 55 -69 69 0 18 39 12
60 -9z m120 -42 c21 -34 27 -78 11 -78 -14 0 -48 52 -56 83 -10 39 20 36 45
-5z m887 17 c8 -22 -23 -53 -89 -86 -31 -16 -98 -60 -149 -99 -94 -71 -109
-79 -109 -58 0 34 170 161 255 190 44 15 50 20 47 43 -2 20 2 25 18 25 11 0
23 -7 27 -15z m1533 -22 c0 -26 -38 -97 -65 -123 -35 -33 -31 -10 11 71 36 68
54 85 54 52z m-2290 -13 c22 -22 19 -40 -6 -40 -19 0 -56 38 -49 50 10 16 34
11 55 -10z m5110 1 c22 -42 8 -171 -19 -171 -13 0 -31 57 -31 95 0 38 18 95
31 95 4 0 13 -9 19 -19z m-5618 -38 c21 -24 48 -79 48 -95 -1 -20 -80 72 -80
93 0 24 12 24 32 2z m3569 2 c24 -8 58 -27 74 -41 l30 -25 -42 4 c-48 6 -153
51 -153 66 0 15 39 14 91 -4z m-2247 -40 c15 -40 -25 -116 -45 -84 -12 19 -11
43 3 74 13 28 33 33 42 10z m2071 -16 c44 -6 105 -17 135 -26 76 -21 207 -89
220 -112 5 -11 10 -46 10 -78 0 -66 5 -77 40 -88 41 -12 68 -44 80 -94 10 -42
8 -56 -15 -126 l-25 -78 30 -65 c36 -78 37 -90 4 -192 -29 -92 -77 -160 -90
-126 -4 11 -1 53 7 95 16 87 19 214 4 221 -13 7 -55 -61 -95 -153 -19 -42 -42
-85 -52 -94 -17 -15 -18 -14 -18 18 0 95 79 283 153 367 39 44 47 59 47 93 0
74 -51 135 -70 84 -12 -32 -24 -31 -71 6 -45 35 -89 50 -111 38 -10 -5 -19
-30 -23 -58 -7 -52 -17 -66 -50 -73 -15 -2 -19 -10 -17 -30 4 -31 -21 -79 -49
-96 -22 -14 -25 0 -9 42 12 33 3 33 -41 1 -53 -40 -49 -10 16 127 89 186 70
170 -114 -95 -174 -251 -228 -304 -268 -265 -13 14 -13 19 0 44 8 16 30 43 47
59 17 17 39 43 47 59 13 25 13 33 -1 71 -22 55 -49 80 -87 77 -27 -2 -29 0
-19 17 5 11 15 23 20 26 23 14 9 35 -22 35 -60 -1 -143 -48 -338 -195 -52 -39
-102 -75 -110 -79 -31 -16 247 248 295 280 28 18 88 72 135 120 47 48 70 76
52 63 -18 -13 -47 -34 -64 -47 -19 -13 -39 -20 -50 -16 -24 7 -66 -18 -192
-115 -56 -42 -121 -89 -146 -103 -25 -15 -97 -73 -161 -130 -63 -57 -162 -145
-219 -195 -57 -51 -106 -91 -108 -88 -20 19 360 412 431 445 28 13 71 48 104
84 31 33 53 53 49 43 -23 -65 54 -24 181 96 55 52 108 99 119 104 10 6 50 13
89 17 84 8 96 17 85 57 -9 32 -6 35 40 41 31 5 90 0 195 -13z m-2761 -70 c27
-22 35 -59 13 -59 -15 0 -91 52 -102 69 -12 20 61 12 89 -10z m250 -18 c9 -13
-32 -44 -49 -37 -13 4 -14 10 -5 26 11 20 44 27 54 11z m1786 -50 c0 -15 -49
-68 -50 -54 0 22 23 63 37 63 7 0 13 -4 13 -9z m-96 -40 c6 -9 -62 -81 -76
-81 -11 0 -10 7 7 40 20 39 57 61 69 41z m-1944 -23 c11 -12 20 -27 20 -32 0
-6 3 -21 6 -33 10 -35 -19 -29 -55 12 -17 20 -31 45 -31 55 0 27 34 26 60 -2z
m5471 -9 c4 -13 7 -66 8 -117 2 -147 -29 -230 -52 -141 -10 38 -4 244 8 272
10 23 28 17 36 -14z m-3641 -118 c13 -25 13 -27 -6 -45 -22 -22 -34 -11 -34
30 0 38 22 47 40 15z m-110 -28 c0 -17 -40 -72 -59 -83 -12 -6 -21 -8 -21 -4
0 19 53 94 65 94 8 0 15 -3 15 -7z m1301 -86 c-13 -58 -50 -120 -81 -137 -26
-14 -26 3 -1 70 51 135 108 181 82 67z m1846 6 c-3 -32 -15 -125 -26 -208 -10
-82 -22 -185 -26 -227 -4 -43 -11 -78 -15 -78 -10 0 -47 112 -56 171 -5 27 -1
50 14 81 11 24 30 92 42 152 21 111 42 166 62 166 7 0 9 -18 5 -57z m-7269
-65 c14 -14 16 -58 2 -58 -14 0 -43 48 -35 60 8 13 18 13 33 -2z m4737 2 c24
-39 -52 -133 -147 -181 -64 -33 -78 -48 -54 -61 21 -12 9 -35 -55 -106 -44
-49 -69 -100 -69 -145 0 -10 23 -40 50 -68 28 -27 50 -55 50 -62 0 -24 58
-134 113 -215 46 -67 57 -90 57 -124 0 -36 2 -40 21 -35 12 3 28 -2 39 -13 49
-49 92 -42 122 22 31 65 104 86 157 47 27 -20 41 -21 235 -21 113 0 213 5 222
10 13 7 5 16 -44 46 -33 20 -73 52 -89 72 -21 26 -38 36 -68 40 -22 3 -51 8
-65 10 -22 5 -23 7 -7 15 30 17 21 49 -20 66 -33 13 -47 14 -106 2 -62 -11
-76 -11 -155 9 -48 12 -116 25 -152 28 -71 7 -110 25 -110 52 0 9 -20 44 -45
76 -24 33 -43 61 -41 63 2 2 29 -3 61 -11 31 -9 147 -25 258 -37 238 -25 309
-41 476 -113 160 -68 185 -76 247 -75 84 1 176 -50 334 -185 86 -73 134 -90
255 -84 81 3 98 7 132 31 24 17 52 27 74 27 53 0 129 -42 189 -105 l55 -57
-85 6 c-47 3 -113 6 -148 6 -67 0 -76 13 -17 24 70 13 46 26 -48 26 -119 0
-159 -7 -155 -29 5 -26 67 -50 163 -61 100 -11 464 -5 620 11 211 22 533 97
543 127 6 20 -77 14 -270 -18 -183 -30 -218 -41 -218 -65 0 -7 -9 -17 -21 -20
-33 -11 -67 3 -81 32 -9 19 -29 33 -62 46 -61 22 -187 49 -195 42 -3 -3 8 -17
24 -30 l30 -24 -36 -1 c-38 0 -59 14 -59 41 0 9 -9 28 -21 43 -23 29 -23 29
51 45 92 21 229 7 302 -30 42 -21 47 -33 21 -49 -14 -8 1 -9 57 -5 107 9 194
31 237 59 40 26 117 53 301 106 104 30 111 34 92 47 -11 8 -20 25 -20 38 0 14
-11 32 -26 44 l-27 21 39 0 c77 0 220 -21 289 -41 111 -33 210 -10 124 29
l-44 20 40 17 c67 29 155 17 254 -35 74 -40 98 -60 71 -60 -19 0 -170 -73
-170 -82 0 -9 11 -7 111 18 31 8 93 14 137 14 93 0 110 12 66 47 -27 21 -28
23 -7 23 37 0 74 -19 163 -84 47 -35 93 -66 103 -69 13 -5 18 -16 17 -34 -4
-53 0 -63 30 -78 33 -17 40 -35 12 -35 -20 0 -147 60 -177 84 -19 15 -18 15
24 16 36 0 41 2 32 14 -21 26 -167 41 -396 41 l-220 0 -46 -36 c-25 -19 -60
-41 -77 -48 -18 -7 -32 -17 -32 -22 0 -11 -29 -8 220 -24 219 -14 270 -23 270
-49 0 -14 7 -18 63 -30 15 -4 107 -39 205 -80 97 -40 202 -81 232 -91 70 -22
103 -53 145 -138 34 -67 36 -97 9 -97 -23 0 -56 39 -49 59 7 24 -8 35 -84 61
-36 12 -88 37 -116 56 -60 39 -70 42 -55 13 7 -11 9 -23 7 -26 -3 -2 -52 16
-109 41 l-103 46 80 -7 80 -6 -32 27 c-45 38 -126 73 -240 103 -80 21 -122 26
-228 27 -81 1 -137 -3 -149 -10 -18 -11 -16 -13 20 -32 45 -23 38 -29 -49 -35
-64 -4 -105 -29 -77 -47 8 -5 40 -12 70 -16 73 -8 136 -26 197 -58 28 -14 71
-28 95 -31 l43 -6 -27 25 c-16 14 -28 28 -28 31 0 3 24 5 54 5 58 0 112 -15
136 -36 12 -12 12 -16 -3 -31 -14 -14 -41 -18 -152 -21 -160 -5 -312 9 -530
49 -170 31 -240 36 -251 18 -14 -24 61 -49 256 -85 197 -37 214 -44 90 -39
-71 3 -146 14 -230 35 -152 37 -306 54 -420 45 -94 -7 -261 -34 -272 -44 -4
-3 64 -4 150 -3 201 5 358 -14 596 -70 79 -18 88 -22 66 -30 -35 -13 -147 -1
-260 28 -180 46 -330 54 -383 20 -53 -35 -206 -28 -250 12 -13 12 -41 18 -95
20 -101 4 -86 -9 82 -67 70 -24 125 -45 123 -48 -5 -4 -356 14 -507 27 -63 6
-175 22 -247 36 -101 20 -136 24 -147 15 -7 -6 -16 -36 -18 -65 -5 -60 -49
-161 -75 -171 -31 -11 -56 47 -84 195 -19 100 -29 94 -30 -20 -1 -58 -4 -116
-8 -130 -6 -22 -9 -18 -20 30 -7 30 -15 63 -18 73 -3 14 -17 -2 -49 -57 -25
-42 -49 -76 -54 -76 -6 0 -10 50 -10 125 0 69 -4 125 -9 125 -18 0 -41 -83
-52 -183 -12 -113 -46 -227 -84 -286 -24 -35 -88 -81 -99 -71 -2 3 4 40 14 83
10 42 23 131 29 197 5 66 13 124 16 129 3 5 14 7 25 4 26 -7 47 11 55 48 8 33
-16 79 -40 79 -8 0 -33 -28 -56 -62 -42 -64 -127 -158 -141 -158 -4 0 -8 27
-8 59 0 64 -12 84 -30 51 -18 -34 -30 -23 -30 29 0 59 15 105 49 150 24 32 25
34 4 23 -34 -19 -46 -15 -40 13 6 34 -20 48 -81 43 -46 -3 -47 -2 -45 25 2 37
-5 34 -23 -8 -28 -69 -13 -80 56 -45 51 26 51 15 1 -34 -47 -46 -67 -44 -126
8 -29 26 -35 35 -22 36 22 0 23 47 1 78 -16 24 -36 30 -29 10 12 -32 -73 -121
-160 -167 -23 -12 -58 -21 -84 -21 -42 0 -216 -52 -236 -71 -20 -19 219 0 320
26 123 31 149 31 205 3 87 -44 103 -140 34 -203 -32 -30 -34 -35 -34 -101 0
-101 -45 -335 -81 -419 l-13 -30 -4 27 c-5 42 36 320 58 391 11 34 20 63 20
65 0 1 -12 1 -27 0 -26 -3 -28 0 -31 34 -3 30 2 43 22 63 l26 26 -25 24 c-13
14 -29 25 -35 25 -5 0 -41 -31 -79 -70 -64 -65 -101 -85 -115 -61 -10 15 -55
21 -222 30 -99 5 -173 14 -190 22 -44 22 -89 90 -124 188 -18 50 -36 91 -40
91 -4 0 -13 -7 -20 -15 -19 -23 -28 -18 -32 18 -2 24 -8 33 -25 35 -18 3 -21
8 -16 37 4 26 1 35 -15 44 -20 11 -36 52 -62 159 -13 50 -23 53 -40 11 -17
-40 -30 -21 -30 44 0 56 -23 117 -44 117 -16 0 -40 -21 -55 -48 -18 -31 -26
-1 -25 91 2 119 22 170 113 289 91 119 121 155 121 144 0 -5 -16 -45 -37 -90
-60 -133 -52 -180 72 -442 73 -154 127 -236 191 -293 69 -61 78 -56 43 26 -26
62 -27 110 0 153 27 45 26 52 -2 45 -15 -4 -28 -1 -36 9 -16 19 -6 36 20 36
33 0 59 19 59 44 0 29 -22 48 -85 71 -61 22 -171 128 -203 195 -19 39 -20 51
-11 85 45 164 244 399 429 508 46 27 113 36 125 17z m2962 -1 c7 -7 3 -37 -13
-101 -13 -49 -24 -106 -24 -124 0 -45 -26 -107 -42 -101 -17 5 -16 184 0 243
12 40 46 94 61 94 4 0 12 -5 18 -11z m470 -57 c11 -79 -21 -153 -48 -111 -12
20 -11 136 2 161 10 18 13 19 26 6 8 -9 17 -34 20 -56z m1083 -29 c30 -38 108
-200 116 -240 10 -49 -11 -41 -50 20 -66 103 -122 228 -108 241 10 11 21 6 42
-21z m-1280 -18 c0 -19 -4 -35 -10 -35 -5 0 -10 16 -10 35 0 19 5 35 10 35 6
0 10 -16 10 -35z m668 -2 c11 -21 43 -110 72 -198 101 -305 217 -535 271 -535
26 0 80 -95 77 -135 -2 -24 -8 -31 -30 -33 -21 -3 -26 0 -22 15 5 19 -23 61
-131 194 -67 83 -90 123 -105 186 -8 31 -19 47 -40 58 -46 24 -80 77 -112 177
-60 186 -44 399 20 271z m-1896 -55 c20 -28 23 -45 23 -120 0 -93 -5 -108 -31
-88 -27 23 -34 -6 -34 -137 0 -119 -4 -153 -20 -153 -14 0 -30 88 -30 167 0
43 7 146 17 230 15 139 18 151 34 142 10 -5 28 -24 41 -41z m1773 -2 c18 -43
30 -140 17 -132 -16 10 -52 112 -52 147 0 37 17 30 35 -15z m465 -83 c53 -161
157 -418 240 -593 43 -91 81 -181 84 -200 l7 -35 -31 35 c-61 69 -224 429
-293 648 -30 93 -56 242 -43 242 2 0 19 -44 36 -97z m-3850 82 c0 -37 -115
-175 -146 -175 -14 0 -15 7 -9 47 l7 47 -34 -25 c-55 -42 -63 -44 -39 -11 25
36 50 52 79 52 11 0 39 16 63 34 39 31 79 46 79 31z m89 -28 c-30 -66 22 -75
86 -16 25 23 48 40 50 37 3 -2 -2 -27 -10 -55 -13 -44 -21 -53 -64 -76 -58
-32 -71 -34 -64 -7 3 10 -5 35 -17 54 -21 36 -20 45 8 79 20 23 25 16 11 -16z
m2146 -59 c-4 -46 -15 -126 -25 -178 l-18 -95 -1 86 c-1 75 21 238 35 261 13
21 15 1 9 -74z m-384 -136 c-5 -59 -15 -132 -22 -162 l-12 -55 -10 35 c-14 52
-2 260 19 307 l16 38 10 -28 c7 -19 6 -64 -1 -135z m-1876 72 c0 -13 -8 -20
-27 -22 -32 -4 -35 4 -11 30 20 22 38 19 38 -8z m2005 -33 c0 -31 -31 -185
-41 -201 -16 -28 -14 149 3 193 12 31 38 37 38 8z m-1210 -70 c0 -17 -4 -33
-10 -36 -6 -4 -10 8 -10 29 0 20 5 36 10 36 6 0 10 -13 10 -29z m2039 -35 c16
-20 3 -46 -24 -46 -13 0 -26 7 -29 16 -7 19 10 44 29 44 7 0 18 -6 24 -14z
m-1113 -40 c-3 -14 -11 -26 -16 -26 -11 0 -14 53 -3 63 13 13 26 -12 19 -37z
m-3046 -178 c-84 -112 -166 -227 -182 -255 -27 -49 -53 -65 -71 -47 -14 14 85
166 195 299 65 79 200 217 206 211 2 -3 -64 -96 -148 -208z m4058 170 c32 -32
-2 -68 -63 -68 -38 0 -41 21 -6 52 34 31 51 34 69 16z m566 -19 c97 -23 178
-67 190 -102 6 -15 7 -29 3 -33 -3 -4 -43 11 -88 32 -69 33 -92 38 -143 37
-46 -1 -66 3 -85 19 -23 17 -35 19 -106 13 -63 -5 -84 -3 -100 8 -19 15 -19
15 5 26 35 16 135 28 195 23 28 -2 86 -12 129 -23z m-2600 -65 c9 -23 7 -47
-4 -64 -9 -13 -12 -12 -25 4 -22 29 -20 76 4 76 10 0 22 -7 25 -16z m2906 9
c0 -12 -33 -43 -47 -43 -13 0 -18 31 -6 43 8 9 53 9 53 0z m-765 -20 c39 -19
46 -33 14 -33 -29 0 -59 18 -59 35 0 19 2 19 45 -2z m-1057 -141 c7 -46 -49
-71 -79 -36 -11 14 -9 20 15 41 34 29 60 27 64 -5z m-2199 -6 c12 -14 5 -46
-10 -46 -12 0 -39 42 -33 52 8 12 30 10 43 -6z m2586 -29 c10 -8 15 -19 11
-25 -10 -16 -73 -32 -130 -32 -41 0 -47 2 -37 14 17 20 92 56 117 56 11 0 28
-6 39 -13z m-3437 -45 c5 -15 -45 -65 -58 -57 -15 9 -12 19 11 49 21 27 39 30
47 8z m2707 -22 c-27 -4 -70 -4 -95 0 -35 6 -24 7 50 8 79 0 87 -2 45 -8z
m-1737 -40 c17 -11 32 -26 32 -34 0 -15 -42 -46 -63 -46 -17 0 -37 42 -37 75
0 31 23 33 68 5z m2320 -19 c10 -6 9 -10 -7 -14 -27 -7 -63 2 -55 14 7 11 45
11 62 0z m1267 -31 c19 -5 -12 -8 -85 -8 -71 0 -106 3 -90 8 31 10 135 10 175
0z m-4629 -42 c-8 -43 -67 -160 -83 -166 -30 -9 -8 69 43 156 30 51 49 56 40
10z m3109 -58 c4 -6 -8 -10 -29 -10 -20 0 -36 5 -36 10 0 6 13 10 29 10 17 0
33 -4 36 -10z m-2885 -180 c125 -236 170 -299 170 -239 0 12 4 17 11 13 21
-13 -15 -114 -41 -114 -20 0 -55 51 -115 170 -64 127 -135 305 -135 337 0 31
24 -5 110 -167z m5089 126 c54 -55 54 -159 0 -110 -30 27 -79 105 -79 126 0
30 43 22 79 -16z m-5293 -107 c-17 -77 -74 -207 -99 -227 -19 -16 -37 -8 -37
16 0 9 23 55 50 102 46 78 80 161 80 199 1 13 3 13 11 -2 8 -14 7 -37 -5 -88z
m5154 56 c13 -14 21 -28 17 -31 -8 -8 -77 34 -77 47 0 18 37 8 60 -16z m253 7
c17 -18 60 -109 72 -152 l7 -25 -24 23 c-37 34 -101 172 -80 172 5 0 16 -8 25
-18z m-771 -32 c184 -35 151 -55 -42 -26 -106 16 -150 30 -150 46 0 13 40 8
192 -20z m-4768 -68 c-16 -39 -82 -153 -108 -187 l-15 -20 -1 20 c0 44 112
241 131 229 5 -3 2 -22 -7 -42z m-154 10 c0 -42 -111 -298 -148 -342 l-21 -25
-1 44 c0 31 12 70 44 136 61 130 126 226 126 187z m391 -159 c-6 -21 -20 -49
-31 -63 l-20 -25 0 33 c0 34 21 94 43 120 10 13 12 12 15 -6 2 -11 -2 -38 -7
-59z m4934 25 c63 -16 106 -42 212 -126 114 -92 140 -119 127 -132 -13 -13
-104 22 -159 61 -89 64 -99 69 -146 69 -41 0 -49 4 -76 38 -20 25 -45 43 -72
51 -45 13 -63 37 -40 52 15 9 90 3 154 -13z m-3501 -4 c10 -26 7 -149 -5 -183
-6 -17 -17 -31 -25 -31 -15 0 -21 32 -27 138 -4 59 -1 74 12 82 24 14 38 12
45 -6z m3977 -35 c11 -38 10 -118 -1 -140 -17 -30 -36 -22 -54 21 -21 53 -20
78 4 118 23 37 41 38 51 1z m-1071 -19 c11 -7 -2 -10 -43 -10 -36 0 -56 4 -52
10 8 13 75 13 95 0z m373 -13 c44 -19 48 -37 9 -37 -16 0 -37 -6 -48 -14 -30
-23 -6 -37 91 -51 127 -19 143 -45 35 -55 -99 -9 -248 7 -300 32 -51 26 -57
42 -39 106 l12 45 101 -5 c58 -3 117 -12 139 -21z m-2223 -68 c107 -21 254
-62 279 -78 10 -6 5 -11 -20 -16 -19 -4 -40 -12 -46 -17 -32 -26 -4 -88 91
-202 36 -43 66 -82 66 -87 0 -10 -21 -13 -59 -10 -79 7 -211 139 -211 210 0
11 -13 29 -29 40 -16 12 -35 38 -42 59 -16 51 -38 75 -56 61 -9 -8 -12 -34
-11 -94 3 -69 0 -86 -16 -104 -14 -15 -17 -29 -12 -58 4 -21 9 -68 12 -106 6
-62 8 -68 33 -73 37 -9 49 -21 56 -55 5 -20 1 -38 -10 -55 -22 -34 -39 -20
-31 27 3 22 4 39 1 39 -14 0 -36 -66 -33 -103 3 -41 2 -42 -27 -42 -29 0 -30
1 -33 55 -3 43 0 57 15 68 16 11 16 14 3 22 -33 22 -60 22 -96 1 -20 -12 -38
-20 -41 -18 -2 2 2 17 9 33 7 19 13 116 16 282 l4 253 42 -6 c22 -3 88 -15
146 -26z m-2585 0 c4 -6 -2 -17 -14 -25 -13 -9 -21 -26 -21 -43 0 -20 -6 -30
-19 -34 -12 -3 -28 -29 -45 -75 -26 -67 -96 -180 -96 -155 0 17 119 315 132
331 13 15 54 16 63 1z m3551 -24 c122 -23 202 -53 221 -82 15 -22 22 -24 57
-20 31 4 49 15 72 41 37 43 77 60 105 46 33 -18 16 -60 -25 -60 -19 0 -18 -1
3 -24 l23 -25 -38 -7 c-53 -10 -352 12 -457 34 -124 26 -175 69 -117 99 33 17
62 16 156 -2z m-3336 -39 c0 -13 -9 -34 -20 -47 l-19 -24 -2 25 c-2 35 1 53
13 67 14 17 28 7 28 -21z m359 -40 c66 -43 139 -52 350 -42 l146 7 -50 -45
c-77 -70 -117 -86 -216 -86 -91 0 -113 -7 -103 -33 5 -15 2 -15 -27 -5 -44 14
-84 51 -124 113 -47 74 -62 125 -35 125 3 0 30 -15 59 -34z m3751 14 c0 -12
-10 -25 -25 -32 -21 -9 -29 -9 -42 5 -22 22 -2 47 38 47 22 0 29 -5 29 -20z
m-4023 -44 c16 -34 15 -35 -9 -64 -15 -18 -28 -49 -31 -76 -7 -52 -37 -114
-104 -217 -35 -55 -47 -83 -48 -116 -1 -37 -8 -50 -45 -88 -40 -41 -99 -79
-109 -70 -2 2 10 26 27 52 16 26 40 78 52 115 12 38 44 102 71 143 69 106 96
162 115 241 17 72 37 114 54 114 6 0 18 -15 27 -34z m2854 -76 c5 0 9 7 9 15
0 23 39 39 66 26 18 -8 24 -19 24 -42 0 -28 -3 -31 -25 -27 -30 6 -31 4 -5
-32 23 -32 18 -40 -24 -40 -48 0 -74 10 -79 31 -3 12 -14 19 -29 19 -29 0 -48
17 -41 37 7 18 -13 33 -45 33 l-23 0 20 26 c11 14 17 32 14 41 -4 9 24 -7 61
-35 37 -29 71 -52 77 -52z m-1943 46 c7 -79 -35 -176 -75 -176 -22 0 -15 27
17 63 17 19 30 39 30 45 0 17 -35 23 -79 13 -22 -5 -41 -6 -40 -2 1 13 115
100 129 98 10 -1 16 -16 18 -41z m-1140 -68 c-4 -61 -12 -118 -21 -139 -33
-74 -99 -132 -182 -159 -45 -14 -85 -46 -85 -68 0 -20 -45 -79 -71 -92 -18
-10 -16 -4 10 48 39 78 76 120 112 130 26 6 33 16 54 75 12 37 38 93 55 124
37 66 118 183 127 183 3 0 3 -46 1 -102z m5030 86 c33 -23 28 -44 -11 -44 -36
0 -74 30 -62 49 9 16 47 13 73 -5z m-4654 -13 c33 -22 88 -99 83 -115 -5 -14
-32 -19 -63 -12 -20 5 -24 12 -24 46 0 34 -4 42 -25 50 -24 9 -32 29 -18 43
10 10 15 9 47 -12z m4496 -13 c20 -8 49 -33 65 -54 16 -21 58 -72 92 -111 48
-55 63 -80 63 -103 0 -27 -2 -30 -20 -20 -11 6 -24 19 -30 30 -6 10 -26 31
-44 45 -30 23 -37 25 -55 13 -35 -21 -35 -45 -2 -83 32 -36 32 -65 2 -65 -10
0 -43 18 -74 40 -120 84 -134 73 -41 -31 96 -107 121 -167 104 -243 -17 -76
-47 -70 -75 15 -28 83 -66 85 -78 5 -8 -51 -55 -128 -148 -240 -80 -97 -153
-166 -177 -166 -21 0 -7 43 30 97 49 72 103 198 147 344 45 150 49 174 25 183
-36 14 -52 -2 -51 -50 3 -68 -24 -85 -146 -93 -82 -5 -98 -9 -131 -34 -27 -21
-44 -27 -62 -23 -17 5 -24 2 -24 -8 0 -8 -7 -22 -16 -31 -25 -24 -39 -3 -39
58 0 44 -3 52 -18 52 -11 0 -31 -18 -46 -40 -37 -55 -66 -58 -78 -8 -16 68
-79 49 -114 -35 -11 -26 -36 -61 -54 -79 -30 -28 -35 -38 -35 -79 0 -42 -2
-45 -16 -33 -14 11 -21 8 -50 -24 -39 -42 -44 -44 -44 -18 0 21 -17 31 -37 23
-7 -2 -13 -12 -13 -22 0 -23 -34 -53 -56 -48 -10 1 -21 16 -25 32 -5 16 -20
39 -34 50 l-26 21 26 84 c30 100 31 141 7 171 -15 19 -24 22 -55 16 -54 -10
-152 -80 -201 -145 -49 -63 -83 -91 -168 -140 -65 -37 -73 -45 -62 -69 12 -29
4 -62 -33 -129 -19 -35 -40 -83 -45 -106 -11 -52 -88 -154 -210 -280 -103
-107 -106 -96 -16 62 80 137 144 236 183 280 36 41 85 112 85 123 0 20 -26 2
-109 -78 -50 -48 -91 -83 -91 -80 0 4 13 32 29 64 61 120 180 252 228 252 19
0 23 5 23 33 0 82 146 225 288 280 46 18 51 14 26 -21 -37 -53 11 -33 146 59
102 70 205 161 225 199 12 23 12 30 -1 49 l-15 21 114 0 c124 0 155 10 144 49
-4 15 1 25 16 33 54 29 734 34 797 6z m-3486 6 c9 -3 16 -11 16 -16 0 -17 -43
-98 -52 -98 -12 0 -10 78 2 101 12 21 12 21 34 13z m886 -33 c0 -47 -43 -107
-59 -82 -16 25 19 121 44 121 11 0 15 -11 15 -39z m-748 -7 c4 -3 -2 -38 -13
-77 -26 -95 -81 -258 -86 -253 -2 2 5 70 16 152 14 100 26 153 37 166 17 18
36 23 46 12z m564 -51 c0 -32 6 -72 14 -90 18 -41 8 -95 -59 -318 -27 -88 -52
-175 -56 -192 l-7 -33 48 7 c60 8 58 -12 -6 -44 -54 -28 -95 -66 -111 -106
-12 -29 -13 -29 -21 -8 -10 28 6 221 21 249 6 11 11 48 11 82 0 55 3 65 25 82
39 30 97 161 120 266 8 37 -6 43 -29 10 -9 -12 -18 -19 -21 -17 -11 11 53 169
68 169 2 0 3 -26 3 -57z m1289 -43 c160 -54 196 -58 285 -31 40 12 74 20 77
18 9 -10 -64 -45 -115 -56 -29 -6 -98 -11 -152 -11 -86 0 -103 3 -119 19 -13
13 -37 21 -68 23 -42 3 -48 6 -51 26 -4 27 4 52 16 52 4 0 61 -18 127 -40z
m-2935 -54 c0 -25 -36 -60 -52 -50 -14 9 -9 33 12 54 27 27 40 25 40 -4z
m2130 -11 c0 -19 -4 -35 -10 -35 -5 0 -10 16 -10 35 0 19 5 35 10 35 6 0 10
-16 10 -35z m-1791 -7 c-7 -13 -38 -60 -70 -106 -32 -46 -63 -99 -69 -117 -9
-28 -16 -33 -38 -32 -25 2 -27 -1 -32 -50 -3 -30 -13 -61 -25 -75 -92 -108
-176 -187 -229 -215 -129 -68 -140 -5 -19 111 41 39 134 139 206 221 188 216
316 337 276 263z m-1179 -75 c0 -87 -27 -146 -105 -231 -32 -35 -59 -61 -62
-59 -2 2 20 42 48 88 29 46 60 104 70 129 16 41 16 47 1 72 -15 25 -15 29 3
48 34 37 45 26 45 -47z m2268 -85 c-6 -166 -19 -219 -103 -395 -52 -109 -75
-137 -75 -90 0 34 18 91 66 214 30 75 49 145 59 210 22 144 35 203 47 203 7 0
9 -48 6 -142z m1387 78 c-21 -31 -73 -56 -118 -56 -40 0 -56 14 -29 25 52 23
139 54 150 54 9 1 8 -5 -3 -23z m-2270 -25 c0 -20 -29 -35 -50 -27 -17 6 -17
7 1 27 19 22 49 22 49 0z m795 5 c0 -8 -11 -23 -25 -33 -19 -13 -30 -36 -40
-81 -26 -110 -185 -394 -185 -331 0 8 20 75 45 149 24 74 50 155 56 180 14 57
84 130 123 130 16 0 26 -6 26 -14z m925 4 c9 -14 -22 -60 -40 -60 -23 0 -28
19 -11 45 17 26 40 32 51 15z m-2424 -60 c-57 -52 -76 -52 -26 0 21 22 46 40
55 40 9 -1 -2 -16 -29 -40z m2514 -17 c-52 -90 -153 -179 -178 -154 -6 6 1 23
23 51 38 48 170 164 177 156 3 -3 -7 -27 -22 -53z m-589 -20 c-8 -15 -36 -48
-61 -73 l-47 -45 30 55 c45 80 86 129 90 108 2 -9 -3 -29 -12 -45z m-1102 38
c9 -14 -36 -73 -84 -109 -44 -34 -45 -34 -48 -12 -4 28 27 61 71 76 21 7 33
18 35 32 3 22 17 29 26 13z m-270 -67 c3 -9 6 -99 6 -201 0 -199 -5 -216 -45
-137 -17 33 -20 59 -20 169 0 133 11 185 39 185 7 0 17 -7 20 -16z m1454 -16
c-3 -25 -34 -36 -52 -18 -8 8 -6 15 8 26 29 21 48 18 44 -8z m-2559 -84 c-45
-47 -96 -80 -107 -70 -3 4 4 13 15 21 11 8 45 34 74 59 30 24 56 42 58 40 3
-3 -15 -25 -40 -50z m1665 24 c-10 -34 -32 -76 -44 -83 -17 -10 -11 23 10 65
22 43 46 55 34 18z m2106 -48 c0 -45 -36 -131 -108 -259 -117 -207 -130 -241
-107 -265 21 -21 32 -20 79 5 46 24 53 20 33 -18 -23 -42 -82 -95 -111 -98
-29 -4 -82 -43 -142 -107 -82 -86 -108 -137 -64 -123 27 9 25 -5 -9 -51 -38
-53 -71 -80 -103 -88 -19 -4 -33 -17 -42 -39 -17 -41 -73 -117 -86 -117 -25 0
82 230 182 388 73 117 103 175 118 232 26 98 187 404 271 518 29 38 46 52 64
52 21 0 25 -5 25 -30z m-4212 -12 c47 -22 47 -43 -1 -33 -48 10 -118 46 -111
56 8 13 58 3 112 -23z m2953 22 c25 -14 24 -29 -6 -70 -13 -18 -32 -57 -40
-87 -17 -59 -26 -65 -43 -28 -26 56 -6 147 39 179 28 19 25 19 50 6z m-1240
-70 c6 -19 13 -80 16 -136 5 -85 3 -103 -11 -117 -24 -23 -43 -21 -57 5 -13
23 -7 266 7 302 7 18 8 18 21 0 7 -10 18 -34 24 -54z m2999 54 c0 -14 -33 -74
-41 -74 -12 0 -11 37 1 61 10 17 40 27 40 13z m414 -56 c-12 -71 -6 -107 21
-139 28 -34 29 -38 15 -59 -12 -20 -40 -4 -58 34 -19 38 -31 25 -94 -97 -36
-69 -72 -120 -112 -162 -44 -45 -73 -88 -113 -169 -59 -119 -137 -246 -152
-246 -6 0 -5 15 1 38 23 84 218 462 239 462 11 0 11 -7 0 -48 -13 -44 -1 -40
32 10 18 28 27 55 27 83 0 31 6 47 25 65 13 13 54 79 91 147 37 67 71 123 76
123 6 0 7 -17 2 -42z m-4906 20 c-6 -19 -108 -88 -129 -88 -35 0 0 48 55 75
55 27 80 32 74 13z m2902 -78 c-31 -58 -160 -173 -176 -158 -16 17 95 147 151
176 26 14 38 5 25 -18z m375 0 c7 -11 -111 -140 -127 -140 -15 0 44 100 75
126 31 26 43 29 52 14z m-3245 -19 c0 -15 -43 -60 -60 -62 -60 -6 -64 10 -13
46 38 25 73 33 73 16z m1145 -111 c25 -10 43 -35 32 -46 -8 -8 -99 23 -123 41
-18 13 -16 14 23 15 23 0 53 -4 68 -10z m1915 -8 c0 -12 -91 -139 -130 -182
-17 -19 -29 -27 -26 -17 3 10 0 17 -9 17 -21 0 -28 -18 -27 -65 2 -33 -5 -53
-31 -91 -19 -27 -82 -142 -141 -256 -59 -114 -111 -210 -117 -213 -20 -13 -7
27 45 136 91 190 127 324 95 356 -40 40 108 208 246 280 84 44 95 48 95 35z
m1220 -42 c0 -15 -79 -98 -80 -84 0 16 58 94 70 94 6 0 10 -5 10 -10z m-999
-75 c-23 -31 -85 -101 -137 -156 -58 -61 -105 -121 -120 -154 -25 -51 -54 -81
-177 -178 -27 -21 -50 -37 -53 -35 -11 12 18 165 38 201 33 58 51 67 82 38
l25 -24 7 28 c4 15 29 56 56 91 76 100 91 152 30 108 -66 -48 -68 -41 -12 45
22 34 46 61 53 58 8 -2 14 -34 17 -88 l5 -84 110 107 c61 58 112 104 114 102
2 -2 -15 -29 -38 -59z m1578 33 c-23 -45 -83 -121 -87 -110 -4 14 21 62 54
101 30 36 50 41 33 9z m-2225 -40 c-41 -79 -239 -358 -255 -358 -4 0 7 37 26
82 19 45 35 84 35 85 0 2 11 8 24 13 17 6 28 21 36 49 11 41 76 132 107 150
36 21 45 13 27 -21z m-311 -101 c-25 -41 -47 -49 -33 -11 14 37 30 55 42 48 5
-3 1 -19 -9 -37z m947 -63 c0 -8 -16 -40 -36 -70 -53 -80 -70 -84 -38 -8 30
73 74 119 74 78z m1610 -54 c-16 -33 -30 -69 -30 -80 0 -18 -5 -21 -32 -18
l-33 3 -1 -67 c-2 -92 -33 -126 -68 -76 -23 33 -20 65 10 84 14 9 23 22 21 28
-3 7 1 22 8 35 14 27 135 151 147 151 5 0 -5 -27 -22 -60z m-2189 -44 c-23
-47 -51 -78 -51 -57 0 28 57 117 68 107 2 -3 -5 -25 -17 -50z m-161 -111 c-31
-83 -60 -137 -76 -142 -22 -7 -24 29 -4 73 19 45 89 143 101 144 4 0 -6 -34
-21 -75z m-325 -7 c-12 -52 -62 -225 -70 -237 -11 -19 -24 -2 -30 42 -8 51 12
112 58 179 37 56 51 61 42 16z m2346 -120 c13 -25 16 -108 5 -127 -10 -15 -59
28 -83 73 -14 26 -13 30 8 52 28 30 55 31 70 2z m-811 -35 c0 -12 -33 -43 -47
-43 -13 0 -18 31 -6 43 8 9 53 9 53 0z m-1720 -49 c14 -35 13 -174 0 -154 -17
26 -52 151 -46 166 9 23 36 16 46 -12z m2642 -14 c10 -19 18 -53 18 -74 0 -38
-1 -39 -19 -22 -24 22 -64 113 -55 127 11 19 39 4 56 -31z m-1675 -30 c-8 -62
-137 -248 -137 -198 0 30 120 238 137 238 3 0 3 -18 0 -40z m-121 -14 c-24
-37 -55 -52 -63 -30 -8 22 54 81 70 65 7 -7 5 -18 -7 -35z m1589 -18 c17 -58
19 -87 6 -107 -7 -11 -15 -4 -36 29 l-27 42 -24 -22 c-20 -20 -24 -21 -29 -7
-14 34 0 71 34 94 19 13 40 23 47 23 7 0 20 -23 29 -52z m-1945 14 c0 -15 -60
-93 -76 -99 -8 -3 -20 -1 -25 4 -14 14 4 41 49 75 39 29 52 34 52 20z m599
-34 c-23 -44 -127 -194 -143 -207 -14 -11 -16 -11 -16 2 0 55 123 227 163 227
4 0 2 -10 -4 -22z m1468 -74 c70 -74 108 -195 66 -211 -21 -8 -47 24 -85 105
-34 71 -48 142 -28 142 7 0 28 -16 47 -36z m-1028 -100 c-14 -149 -17 -159
-36 -114 -19 45 -12 120 17 189 13 28 24 50 26 48 2 -2 -2 -57 -7 -123z
m-1269 -115 c15 -27 98 -79 127 -79 13 0 37 10 53 21 23 17 38 21 75 17 47 -6
85 -30 85 -55 0 -26 -39 -53 -76 -53 -50 0 -191 37 -235 62 -21 11 -42 31 -48
45 -23 50 -5 88 19 42z m539 -55 c-49 -81 -83 -89 -60 -15 13 45 68 98 84 82
7 -7 -1 -29 -24 -67z m377 24 c11 -18 -34 -48 -73 -48 -27 0 -34 4 -31 17 6
33 88 58 104 31z m-291 -57 c-4 -17 -11 -29 -16 -25 -10 6 -12 57 -2 68 14 13
25 -13 18 -43z m-590 -81 c46 -32 236 -225 254 -258 16 -29 0 -29 -47 3 -38
25 -95 39 -205 51 -50 5 -56 7 -42 18 16 11 14 19 -24 90 -43 82 -49 104 -29
124 15 15 42 7 93 -28z m230 -34 c58 -25 38 -69 -21 -49 -37 12 -54 40 -34 53
19 12 15 13 55 -4z m564 -21 c51 -26 69 -113 23 -108 -20 3 -22 -2 -22 -42 0
-42 -4 -49 -60 -104 -33 -33 -60 -64 -60 -69 0 -5 -21 -17 -47 -27 -27 -10
-102 -52 -168 -93 -137 -86 -217 -117 -327 -127 -47 -4 -81 -12 -89 -21 -6 -8
-8 -14 -4 -14 4 0 2 -7 -5 -15 -16 -19 -126 -21 -133 -2 -8 23 31 96 63 116
20 11 61 22 108 26 126 11 172 38 346 205 110 105 166 175 166 206 0 26 28 49
88 70 49 17 87 17 121 -1z m-431 -104 c11 -6 10 -11 -3 -25 -22 -21 -45 -20
-45 2 0 31 21 41 48 23z m-240 -128 c26 -16 47 -35 47 -43 0 -19 -87 -66 -138
-74 -47 -8 -81 -30 -159 -103 -31 -29 -65 -53 -76 -53 -43 0 -38 65 8 98 18
14 37 46 56 94 15 40 38 83 52 96 22 23 30 24 93 20 54 -4 80 -12 117 -35z
m-1180 -36 c21 -21 5 -40 -27 -32 -34 8 -71 33 -71 47 0 15 79 3 98 -15z
m2093 -14 c14 -36 3 -93 -17 -93 -9 0 -71 -53 -137 -118 -148 -144 -173 -162
-225 -162 -24 0 -45 -6 -52 -16 -26 -30 -97 -62 -173 -78 -43 -9 -108 -28
-144 -42 -136 -54 -229 -68 -271 -38 -44 31 -13 94 46 94 72 0 356 130 576
264 103 63 122 71 155 66 8 -1 35 19 60 44 40 40 142 105 164 106 4 0 12 -12
18 -27z m-856 -83 c9 -15 -44 -45 -57 -32 -8 8 -8 15 2 27 14 17 46 20 55 5z
m973 -163 c22 -26 35 -104 23 -140 -13 -40 -140 -171 -201 -207 -23 -14 -56
-37 -74 -51 -61 -52 -80 -57 -361 -116 -29 -6 -30 -6 -12 14 9 11 17 23 17 26
0 4 -57 7 -127 7 -172 0 -192 15 -91 66 28 14 144 57 257 96 295 100 377 142
471 239 41 43 78 79 81 79 4 0 11 -6 17 -13z m814 -104 c22 -25 30 -57 22 -87
-7 -29 -24 -35 -24 -10 0 12 -6 15 -26 10 -33 -9 -54 9 -54 45 0 51 51 77 82
42z m-164 -1601 c33 -49 47 -111 17 -82 -18 19 -67 130 -57 130 4 0 22 -21 40
-48z"/>
<path d="M8440 11716 c-25 -6 -54 -17 -65 -24 -18 -10 -17 -11 13 -12 49 0
173 30 166 41 -7 12 -59 10 -114 -5z"/>
<path d="M7875 11480 c11 -5 58 -20 105 -35 47 -14 115 -40 152 -57 60 -28 66
-32 50 -44 -22 -16 -7 -45 30 -58 36 -13 58 -1 58 29 0 20 7 29 30 36 41 15
38 27 -15 50 -49 22 -59 39 -22 39 25 0 54 16 45 25 -3 3 -34 10 -69 15 -82
12 -391 12 -364 0z"/>
<path d="M7532 11273 c-22 -9 -2 -23 34 -23 38 0 46 15 12 24 -26 6 -28 6 -46
-1z"/>
<path d="M8315 10790 c-17 -28 122 -199 212 -260 43 -28 54 -31 98 -26 78 8
152 34 189 66 35 31 96 136 96 165 0 19 2 19 -94 -15 -44 -16 -82 -21 -156
-21 -54 0 -111 3 -127 7 -79 17 -121 36 -142 64 -21 30 -63 41 -76 20z"/>
<path d="M7893 10693 c-35 -7 -90 -22 -122 -33 -77 -26 -122 -25 -248 4 -57
13 -105 21 -108 18 -3 -3 11 -25 31 -49 20 -24 34 -46 32 -49 -3 -2 -27 0 -55
5 -57 11 -89 6 -97 -16 -8 -21 19 -68 53 -93 30 -21 30 -21 41 -1 18 35 48 45
76 26 30 -20 27 -34 -12 -55 -16 -9 -29 -23 -29 -31 0 -36 95 -14 157 36 24
19 66 46 93 60 61 31 264 181 254 188 -2 2 -32 -3 -66 -10z"/>
<path d="M8845 10449 c-49 -17 -119 -34 -155 -37 -59 -6 -65 -9 -74 -35 -17
-48 1 -62 80 -62 59 0 80 5 144 36 76 37 155 102 145 120 -10 15 -46 10 -140
-22z"/>
<path d="M7885 10325 c-22 -8 -50 -26 -63 -41 -22 -25 -22 -28 -7 -43 21 -21
154 -26 310 -12 163 15 202 37 149 86 -33 30 -66 32 -134 5 -28 -11 -59 -20
-68 -20 -10 0 -35 9 -57 20 -46 23 -75 24 -130 5z"/>
<path d="M8497 9852 c-55 -59 -71 -92 -44 -92 16 0 45 31 82 87 43 67 24 70
-38 5z"/>
<path d="M7557 9884 c-11 -11 -8 -98 4 -133 6 -17 17 -31 25 -31 23 0 27 46 9
102 -19 58 -28 72 -38 62z"/>
<path d="M8742 9825 c-40 -34 -96 -121 -88 -140 10 -26 47 -16 87 24 35 35 39
44 39 90 0 28 -2 51 -4 51 -3 0 -18 -11 -34 -25z"/>
<path d="M7686 9794 c-3 -9 -6 -35 -6 -59 0 -59 24 -86 86 -96 128 -21 207 -4
173 37 -26 31 -59 36 -102 15 -29 -14 -45 -17 -58 -10 -30 16 -49 51 -49 91 0
31 -4 38 -19 38 -10 0 -22 -7 -25 -16z"/>
<path d="M8352 9723 c2 -20 9 -29 26 -31 27 -4 29 18 4 41 -26 24 -34 21 -30
-10z"/>
<path d="M8190 9710 c0 -37 26 -52 81 -48 l40 3 -50 38 c-28 20 -55 37 -61 37
-5 0 -10 -13 -10 -30z"/>
<path d="M8002 9653 c4 -20 52 -35 85 -27 48 12 10 44 -52 44 -29 0 -36 -4
-33 -17z"/>
<path d="M7686 9577 c23 -60 295 -101 521 -78 90 9 210 33 268 53 25 8 15 -19
-14 -39 -77 -52 -293 -112 -434 -120 -91 -6 -99 -5 -121 16 -28 27 -61 24 -61
-4 0 -15 21 -31 85 -62 93 -47 130 -81 130 -120 0 -24 2 -25 40 -20 48 6 100
42 100 68 0 22 51 79 69 79 6 0 11 -7 11 -15 0 -45 62 -18 75 33 10 39 24 52
57 52 16 0 39 5 51 11 30 16 137 109 137 119 0 5 -32 14 -71 20 -61 10 -89 9
-193 -6 -159 -25 -419 -25 -526 0 -137 31 -131 30 -124 13z"/>
<path d="M7705 9369 c-18 -33 -14 -59 9 -59 16 0 26 21 26 55 0 37 -17 39 -35
4z"/>
<path d="M7807 9313 c-9 -49 24 -98 39 -58 6 16 -12 72 -26 80 -4 3 -10 -7
-13 -22z"/>
<path d="M6279 9467 c-51 -31 -70 -48 -63 -58 10 -17 34 -9 74 27 60 54 54 70
-11 31z"/>
<path d="M7010 9034 c-59 -64 -93 -143 -98 -227 -7 -107 11 -104 48 10 18 54
50 135 71 181 21 45 34 82 30 82 -5 0 -27 -21 -51 -46z"/>
<path d="M7010 8815 c0 -39 15 -48 22 -12 5 27 0 47 -13 47 -5 0 -9 -16 -9
-35z"/>
<path d="M7110 8814 c0 -21 4 -33 10 -29 6 3 10 19 10 36 0 16 -4 29 -10 29
-5 0 -10 -16 -10 -36z"/>
<path d="M7278 8770 c-10 -21 -28 -162 -28 -218 0 -63 15 -87 30 -48 12 31 10
291 -2 266z"/>
<path d="M7080 8633 c0 -48 3 -63 10 -53 13 20 13 107 0 115 -6 4 -10 -19 -10
-62z"/>
<path d="M8444 8225 c-3 -14 -3 -33 0 -42 6 -15 8 -15 16 -3 13 20 13 57 0 65
-5 3 -12 -6 -16 -20z"/>
<path d="M7687 8026 c-3 -19 -2 -48 3 -63 7 -22 8 -16 9 35 1 69 -4 80 -12 28z"/>
<path d="M8232 7805 c0 -58 1 -64 8 -35 5 19 5 51 0 70 -7 29 -8 23 -8 -35z"/>
<path d="M8320 6644 c0 -34 4 -53 10 -49 6 3 10 28 10 56 0 27 -4 49 -10 49
-5 0 -10 -25 -10 -56z"/>
<path d="M4723 7945 c-41 -43 -53 -65 -35 -65 13 0 91 69 102 91 20 37 -22 21
-67 -26z"/>
<path d="M6700 7622 c-36 -18 -53 -52 -27 -52 18 0 77 47 77 61 0 13 -10 11
-50 -9z"/>
<path d="M9805 6550 c-4 -6 12 -10 40 -10 28 0 44 4 40 10 -3 6 -21 10 -40 10
-19 0 -37 -4 -40 -10z"/>
<path d="M9401 6369 c-47 -10 -89 -23 -94 -28 -13 -13 87 -23 167 -15 83 8
136 27 136 48 0 22 -100 20 -209 -5z"/>
<path d="M6157 6204 c-10 -11 -9 -76 2 -70 5 3 11 14 13 24 6 22 -5 56 -15 46z"/>
<path d="M6536 6161 c-41 -8 -42 -23 -7 -64 35 -39 116 -67 196 -67 l49 0 -35
36 c-68 72 -143 106 -203 95z"/>
<path d="M6770 6135 c0 -18 85 -75 112 -75 17 0 17 2 3 23 -15 23 -83 67 -104
67 -6 0 -11 -7 -11 -15z"/>
<path d="M6917 5994 c-37 -24 -67 -49 -67 -55 0 -14 94 38 121 67 38 40 16 36
-54 -12z"/>
<path d="M8510 5880 c0 -6 27 -10 60 -10 33 0 60 4 60 10 0 6 -27 10 -60 10
-33 0 -60 -4 -60 -10z"/>
<path d="M7595 5667 c-17 -27 -17 -77 0 -78 14 -1 37 83 26 94 -5 5 -16 -1
-26 -16z"/>
<path d="M8670 7016 c0 -25 5 -46 10 -46 6 0 10 18 10 39 0 22 -4 43 -10 46
-6 4 -10 -12 -10 -39z"/>
<path d="M6553 5578 c-36 -17 -27 -29 19 -26 31 2 44 8 46 21 4 20 -29 22 -65
5z"/>
<path d="M6317 5025 c-25 -24 -37 -45 -37 -63 l0 -26 17 24 c9 14 30 42 46 63
36 47 21 48 -26 2z"/>
<path d="M9020 4516 c0 -40 12 -52 30 -31 15 19 5 65 -15 65 -10 0 -15 -11
-15 -34z"/>
<path d="M1727 12094 c-11 -11 -8 -64 3 -64 14 0 24 50 13 61 -5 5 -12 6 -16
3z"/>
<path d="M710 12035 c-14 -17 -9 -53 26 -200 13 -55 42 -221 64 -370 62 -418
122 -714 147 -722 20 -7 35 29 41 93 6 82 13 85 158 82 84 -3 107 0 114 12 16
24 12 156 -4 173 -8 8 -38 17 -67 20 -33 4 -60 14 -74 27 l-23 21 -7 -70 c-4
-38 -13 -78 -21 -88 -13 -17 -15 -17 -29 1 -8 11 -15 39 -15 62 0 53 -16 97
-33 91 -6 -2 -13 -17 -14 -33 0 -16 -2 -33 -2 -38 -1 -5 -7 -3 -15 3 -26 22
-79 251 -145 626 -38 216 -62 308 -81 320 -4 3 -13 -2 -20 -10z"/>
<path d="M11902 12033 c-59 -352 -95 -453 -157 -445 -22 3 -23 1 -15 -27 7
-26 5 -36 -14 -59 -37 -44 -46 -68 -46 -121 l0 -51 42 0 c32 0 52 -8 92 -38
71 -54 109 -72 151 -72 19 0 35 3 35 6 0 3 -34 42 -75 86 -108 115 -112 142
-50 339 30 97 47 222 43 319 -2 41 -5 70 -6 63z"/>
<path d="M11791 11120 c-87 -48 -160 -108 -191 -157 -36 -57 -80 -186 -80
-236 0 -32 3 -37 24 -37 28 0 44 32 55 113 9 67 30 101 79 126 48 25 156 139
196 209 13 21 -26 13 -83 -18z"/>
<path d="M1347 11003 c-11 -10 -8 -83 3 -83 6 0 10 20 10 45 0 46 -2 50 -13
38z"/>
<path d="M11406 10819 c-3 -34 -6 -97 -6 -140 0 -42 -3 -85 -6 -94 -6 -15 -8
-15 -25 1 -24 22 -34 13 -60 -54 -20 -48 -23 -76 -24 -182 0 -119 1 -127 27
-172 l28 -47 -27 -32 -28 -32 -5 24 c-8 34 -38 37 -50 4 -18 -46 28 -190 60
-190 19 0 47 81 100 294 53 212 74 360 67 481 -6 103 -24 200 -36 200 -5 0
-11 -28 -15 -61z m-24 -416 c7 -25 -15 -96 -30 -101 -8 -2 -12 9 -12 38 0 62
31 107 42 63z"/>
<path d="M11065 10799 c-15 -27 -45 -160 -45 -195 0 -20 23 -17 37 5 31 50 57
221 33 221 -5 0 -17 -14 -25 -31z"/>
<path d="M930 10553 c0 -110 2 -125 20 -143 30 -30 100 -25 100 7 0 8 -10 29
-22 46 -12 16 -39 71 -60 121 l-37 91 -1 -122z"/>
<path d="M11142 10547 c-31 -33 -52 -90 -52 -145 0 -55 12 -72 53 -72 29 0 30
0 23 46 -4 32 0 61 14 101 14 40 17 61 9 74 -13 25 -21 24 -47 -4z"/>
<path d="M1790 10500 c0 -37 100 -273 121 -286 16 -9 10 13 -30 119 -38 103
-77 187 -86 187 -3 0 -5 -9 -5 -20z"/>
<path d="M1084 10356 c-121 -26 -140 -33 -201 -82 -75 -61 -203 -242 -203
-287 0 -28 -43 -141 -109 -290 -108 -241 -115 -320 -43 -428 24 -35 42 -74 42
-89 0 -15 11 -42 25 -61 13 -19 32 -44 41 -57 9 -13 23 -62 31 -110 20 -130
73 -299 135 -434 26 -56 36 -69 64 -78 48 -16 52 -53 19 -176 -48 -175 -107
-286 -238 -442 -145 -173 -164 -208 -192 -340 -27 -129 -48 -143 -84 -57 -25
60 -57 85 -109 85 -35 0 -120 -28 -190 -64 -56 -28 -71 -51 -24 -36 15 5 56
18 90 29 63 21 126 27 156 15 11 -4 16 -19 16 -49 0 -35 8 -54 45 -103 71 -94
187 -177 238 -170 22 3 22 5 22 218 0 255 -3 245 131 398 67 75 97 120 135
201 28 57 82 148 121 202 87 123 158 246 158 276 0 15 -10 28 -30 38 -16 8
-33 27 -36 40 -3 14 7 104 24 200 46 272 97 355 322 530 134 104 138 121 40
187 -32 21 -22 41 44 86 51 34 146 66 306 102 52 12 99 26 104 31 17 16 -46
90 -102 122 -46 26 -65 30 -159 35 l-106 5 49 45 c287 264 297 291 104 300
-119 6 -263 -11 -386 -44 -166 -44 -181 -30 -76 72 79 78 102 110 102 145 0
65 -82 75 -276 35z m111 -48 c-13 -33 -109 -78 -166 -78 -33 0 -65 32 -47 47
41 32 223 58 213 31z m-202 -119 c20 -5 37 -15 37 -20 0 -27 -221 -229 -251
-229 -27 0 25 139 77 208 39 50 70 60 137 41z m675 -111 c2 -12 -8 -20 -35
-27 -47 -14 -140 -14 -148 -1 -7 12 111 50 150 47 19 -1 31 -8 33 -19z m-291
-75 c30 -89 110 -120 157 -60 24 30 26 31 26 9 0 -35 -50 -79 -111 -96 -30 -8
-103 -20 -164 -25 -129 -12 -178 -27 -241 -76 -26 -19 -53 -35 -60 -35 -8 0
-20 -15 -28 -32 -7 -18 -24 -43 -37 -55 -35 -31 -172 -105 -256 -137 -40 -15
-75 -31 -78 -36 -2 -4 4 -15 15 -25 39 -35 10 -139 -34 -122 -14 6 -16 15 -10
56 6 45 4 54 -20 81 -14 18 -26 37 -26 44 0 27 152 150 322 259 102 66 165 98
237 122 29 10 70 32 90 50 72 64 165 126 184 123 14 -2 25 -17 34 -45z m27
-272 c20 -22 13 -92 -13 -114 -9 -8 -63 -29 -121 -47 -144 -44 -256 -99 -449
-218 -91 -56 -169 -102 -174 -102 -15 0 3 52 38 110 60 99 262 227 411 260 31
7 69 27 104 54 30 24 69 50 85 59 41 22 98 22 119 -2z m310 10 c46 -11 67 -28
48 -40 -7 -4 -62 -13 -122 -21 -88 -10 -113 -10 -125 0 -21 17 -19 57 3 63 31
8 156 7 196 -2z m-305 -362 c17 -6 31 -15 31 -21 0 -12 -105 -58 -148 -65 -27
-5 -37 0 -66 31 -19 20 -37 36 -39 36 -3 0 -3 -27 0 -59 5 -52 2 -65 -21 -105
-28 -49 -99 -112 -208 -186 -37 -25 -72 -54 -79 -65 -9 -14 -12 -54 -10 -138
2 -100 0 -118 -14 -123 -10 -4 -26 2 -40 16 -32 30 -86 160 -92 224 -4 46 -1
57 34 114 51 84 111 152 182 206 72 55 179 112 246 131 62 16 181 19 224 4z"/>
<path d="M10606 9118 c20 -35 51 -81 69 -103 50 -62 58 -83 71 -187 7 -55 24
-126 40 -165 15 -37 28 -90 29 -118 1 -27 15 -81 30 -120 45 -116 170 -361
230 -451 56 -84 75 -127 75 -172 0 -40 30 -90 73 -122 22 -16 42 -28 45 -26 2
3 -8 22 -22 43 -31 46 -32 60 -5 134 26 71 22 85 -56 209 -31 48 -67 119 -80
156 -24 70 -51 233 -42 256 6 16 63 -108 78 -168 12 -46 31 -70 49 -59 26 16
2 109 -68 257 -58 124 -140 250 -242 373 -50 61 -100 126 -110 145 -19 37 -68
87 -135 137 -65 48 -67 47 -29 -19z m294 -494 c26 -73 24 -118 -5 -122 -11 -1
-29 4 -40 12 -20 14 -20 15 -1 29 15 11 18 25 17 67 0 29 -4 63 -7 74 -14 47
15 -2 36 -60z"/>
<path d="M10490 9120 c0 -13 89 -110 101 -110 21 0 5 32 -37 74 -45 45 -64 56
-64 36z"/>
<path d="M2420 8950 c45 -42 111 -90 122 -90 29 0 -23 43 -127 104 -29 17 -28
17 5 -14z"/>
<path d="M10597 8936 c-15 -39 31 -199 64 -216 25 -14 29 -13 29 9 0 25 -57
183 -74 206 -12 16 -13 16 -19 1z"/>
<path d="M2340 8909 c0 -23 124 -124 173 -142 53 -19 -29 72 -112 124 -49 32
-61 35 -61 18z"/>
<path d="M2790 8881 c0 -16 112 -51 163 -51 43 0 24 16 -40 33 -83 22 -123 28
-123 18z"/>
<path d="M2722 8818 c7 -20 65 -50 90 -46 22 3 21 5 -9 21 -56 30 -85 39 -81
25z"/>
<path d="M5370 8810 c0 -5 20 -10 45 -10 25 0 45 5 45 10 0 6 -20 10 -45 10
-25 0 -45 -4 -45 -10z"/>
<path d="M5292 8711 c-35 -21 -71 -45 -80 -54 -15 -16 -15 -17 2 -17 23 0 103
50 136 85 32 34 17 30 -58 -14z"/>
<path d="M10403 8628 c15 -36 37 -49 37 -20 0 18 -28 52 -43 52 -4 0 -1 -14 6
-32z"/>
<path d="M2910 8561 c0 -9 64 -53 93 -64 28 -10 21 28 -9 52 -26 21 -84 29
-84 12z"/>
<path d="M4635 8539 c-41 -16 -66 -18 -137 -13 -56 3 -88 2 -88 -5 0 -22 202
-101 260 -101 30 0 107 51 117 77 8 22 -44 63 -77 62 -14 -1 -47 -10 -75 -20z"/>
<path d="M4090 8460 c0 -5 16 -10 36 -10 21 0 33 4 29 10 -3 6 -19 10 -36 10
-16 0 -29 -4 -29 -10z"/>
<path d="M10100 8455 c0 -15 52 -114 65 -125 24 -20 19 7 -13 69 -23 46 -52
78 -52 56z"/>
<path d="M3856 8371 c-19 -7 -18 -8 4 -14 33 -8 77 2 58 14 -16 10 -36 10 -62
0z"/>
<path d="M10840 8212 c0 -19 29 -72 40 -72 6 0 10 6 10 14 0 19 -49 76 -50 58z"/>
<path d="M10555 7990 c-9 -15 56 -153 67 -142 13 13 -1 85 -23 121 -19 32 -33
38 -44 21z"/>
<path d="M10681 7778 c-1 -71 3 -128 8 -128 24 0 28 149 6 215 -12 38 -13 32
-14 -87z"/>
<path d="M10296 7763 c-10 -11 -7 -83 5 -106 25 -47 51 -43 43 6 -13 76 -32
115 -48 100z"/>
<path d="M10040 7644 c0 -27 4 -43 10 -39 6 3 10 24 10 46 0 21 -4 39 -10 39
-5 0 -10 -21 -10 -46z"/>
<path d="M1816 7615 c-33 -13 -69 -34 -80 -46 l-21 -21 41 5 c46 5 158 52 175
73 19 23 -48 17 -115 -11z"/>
<path d="M11320 7544 c0 -4 20 -48 44 -99 42 -89 66 -122 66 -92 0 22 -90 197
-101 197 -5 0 -9 -3 -9 -6z"/>
<path d="M715 7116 c-42 -31 26 -141 83 -134 34 4 46 28 38 72 -13 67 -73 98
-121 62z"/>
<path d="M1760 6907 c0 -49 68 -100 277 -206 137 -70 193 -108 193 -131 0 -6
-16 -20 -36 -32 -45 -26 -34 -33 66 -42 69 -7 183 -31 203 -43 5 -3 4 -9 -3
-13 -20 -12 -4 -26 82 -72 50 -26 102 -63 133 -95 55 -57 130 -97 215 -114
128 -25 306 -93 396 -152 71 -45 40 -45 -127 1 -165 45 -271 66 -314 60 -30
-3 -30 -3 -7 -16 12 -7 60 -19 106 -27 95 -15 125 -29 212 -95 39 -30 88 -56
131 -70 91 -29 244 -132 358 -241 101 -96 126 -111 265 -159 52 -18 120 -45
150 -60 63 -32 112 -69 91 -70 -30 0 -142 34 -230 72 -130 55 -132 43 -7 -34
70 -44 60 -46 -68 -18 -117 26 -134 25 -63 -4 31 -13 88 -44 124 -67 59 -39
73 -44 117 -42 33 2 56 -3 67 -13 19 -17 137 -44 194 -44 l40 0 -55 23 c-30
13 -82 38 -115 55 l-60 31 66 1 c82 0 173 -27 254 -75 74 -44 135 -106 135
-138 0 -42 42 -90 120 -136 112 -66 340 -184 346 -179 2 3 -20 26 -51 52 -30
26 -55 51 -55 55 0 4 16 15 35 24 19 9 35 23 35 31 0 23 -89 114 -154 159 -34
23 -142 83 -241 135 -279 146 -390 222 -589 407 -221 205 -365 315 -412 315
-73 0 -281 120 -468 270 -228 183 -335 254 -601 400 -174 95 -249 144 -323
212 -30 26 -59 48 -66 48 -7 0 -23 -11 -36 -25 -33 -36 -90 -49 -152 -36 -60
13 -80 24 -135 69 -24 19 -43 32 -43 29z m683 -329 c34 -13 35 -26 2 -38 -31
-12 -119 4 -154 27 l-26 17 30 7 c36 8 109 2 148 -13z m225 -187 c64 -33 110
-66 101 -75 -6 -6 -122 54 -170 88 -40 28 4 20 69 -13z m282 -131 c44 -22 68
-56 52 -72 -26 -26 -145 31 -173 83 -11 22 -10 22 35 16 25 -4 64 -16 86 -27z
m528 -368 c79 -56 144 -92 170 -92 29 0 40 -27 19 -47 -22 -22 -53 -11 -128
45 -35 26 -90 63 -121 81 -32 18 -58 39 -58 48 0 25 57 8 118 -35z m411 -274
l90 -63 -35 -3 c-66 -6 -142 49 -170 122 -11 28 10 18 115 -56z m-79 -57 c44
-16 106 -35 137 -41 90 -18 93 -19 93 -46 0 -13 -1 -24 -3 -24 -2 0 -55 17
-118 38 -127 43 -209 80 -209 93 0 14 13 11 100 -20z m859 -482 c42 -23 104
-61 139 -86 59 -42 74 -64 52 -78 -23 -14 -204 90 -267 154 -65 64 -32 68 76
10z"/>
<path d="M336 6399 c-35 -27 -33 -48 9 -89 38 -37 42 -51 21 -69 -24 -20 -132
-30 -214 -21 -70 8 -79 11 -109 44 -18 20 -35 36 -38 36 -12 0 -3 -98 10 -117
16 -23 101 -54 180 -67 34 -6 44 -3 60 13 22 25 42 26 95 5 63 -25 83 -76 28
-68 -21 4 -41 0 -53 -9 -20 -15 -20 -15 2 -39 12 -13 64 -50 115 -82 51 -33
136 -94 188 -136 106 -85 186 -141 275 -191 48 -27 71 -34 116 -34 90 0 195
-61 282 -165 16 -19 25 -21 66 -15 42 6 50 3 91 -28 52 -39 138 -89 305 -177
163 -86 284 -162 357 -224 34 -28 97 -82 142 -120 109 -92 245 -181 304 -199
26 -7 81 -35 121 -62 85 -55 171 -95 256 -120 90 -26 133 -51 148 -88 17 -39
72 -90 155 -142 176 -111 221 -145 363 -267 209 -180 282 -234 361 -264 53
-20 87 -44 175 -123 102 -92 228 -226 266 -281 20 -29 22 -69 5 -106 -12 -25
-10 -29 29 -63 58 -52 165 -105 196 -97 14 3 46 24 73 47 27 22 72 52 99 67
44 23 61 26 140 26 74 0 107 -6 183 -32 98 -34 489 -214 627 -290 141 -77 517
-334 575 -392 112 -113 306 -428 457 -740 l85 -175 -17 -135 c-81 -665 -91
-840 -54 -971 38 -134 36 -171 -9 -275 -56 -130 -58 -142 -26 -156 40 -19 58
-1 65 67 7 60 33 107 64 113 16 4 17 -2 13 -52 -3 -31 -1 -59 3 -62 15 -9 48
34 55 71 4 24 14 39 28 45 24 9 47 33 70 75 17 29 17 27 12 -73 -3 -56 -3
-102 -1 -102 2 0 15 11 28 24 14 13 47 36 74 50 28 14 53 32 57 41 11 31 6
110 -11 157 l-16 47 28 38 c16 21 73 84 127 139 54 56 98 107 98 113 0 14 -75
-36 -104 -68 -21 -23 -66 -29 -66 -8 0 21 88 99 230 204 160 118 260 200 260
213 0 32 -219 -113 -453 -299 l-130 -103 5 120 c7 160 20 187 141 288 148 123
237 211 237 235 0 21 -34 5 -135 -62 -59 -39 -131 -81 -160 -94 -54 -24 -58
-30 -70 -97 -5 -34 -20 -56 -30 -46 -9 9 -26 200 -35 403 -12 279 -25 368 -57
404 l-24 26 5 -80 c3 -44 8 -96 12 -115 4 -22 -18 14 -59 95 -69 139 -100 185
-122 185 -19 0 -33 27 -70 134 -35 100 -53 120 -84 92 -30 -27 -61 -17 -76 26
-37 110 -315 427 -437 499 -37 21 -140 94 -231 162 -294 221 -576 372 -727
391 -25 3 -67 8 -94 11 -64 9 -49 22 39 34 64 9 125 6 254 -15 35 -6 42 -4 36
6 -9 15 -247 130 -269 130 -7 0 -60 -22 -117 -49 -57 -27 -117 -51 -133 -54
-16 -3 -65 4 -110 15 -45 11 -113 21 -153 22 -52 1 -77 7 -91 19 -26 23 -32
21 -32 -10 0 -32 20 -63 73 -115 21 -21 36 -42 32 -48 -19 -31 -138 5 -185 55
-23 24 -23 28 -12 83 19 93 16 136 -14 171 -33 40 -172 143 -360 268 -240 159
-592 426 -834 632 -103 88 -179 132 -288 166 -121 38 -198 75 -323 156 -74 47
-125 73 -152 77 -46 6 -117 53 -234 156 -76 67 -141 117 -391 300 -177 129
-285 233 -322 310 -34 73 -57 97 -70 77 -4 -8 -4 -28 1 -45 11 -38 11 -36 0
-36 -5 0 -39 40 -75 89 -61 82 -81 101 -107 101 -17 0 -9 -32 16 -62 24 -29
33 -58 17 -58 -4 0 -30 22 -57 50 -26 27 -52 47 -57 44 -4 -3 -8 -18 -8 -34 0
-16 -4 -31 -9 -35 -19 -11 -80 57 -141 158 -34 56 -77 127 -96 157 -19 30 -34
68 -35 85 0 16 -4 39 -8 50 -8 19 -8 19 -19 -2 -19 -35 -14 -125 13 -225 45
-168 27 -156 -80 52 -77 148 -134 230 -160 230 -8 0 -23 13 -34 29 -12 16 -34
31 -50 34 -22 5 -36 17 -49 43 l-19 37 -7 -45 c-4 -26 -14 -52 -23 -59 -24
-21 -84 53 -123 154 -47 118 -50 120 -94 86z m233 -345 c35 -20 71 -73 81
-118 4 -20 6 -36 3 -36 -25 0 -143 131 -143 158 0 17 27 15 59 -4z m6436
-4479 c28 -85 29 -95 16 -95 -12 0 -60 131 -66 183 -6 42 -6 42 9 16 9 -15 27
-62 41 -104z m105 -474 c-11 -23 -25 -41 -30 -41 -10 0 15 92 34 125 22 39 19
-40 -4 -84z m-140 12 c-1 -134 -69 -543 -78 -468 -9 68 26 407 50 488 16 54
28 45 28 -20z m139 -248 c9 -55 7 -65 -18 -120 -15 -33 -43 -97 -61 -143 -33
-84 -50 -109 -50 -73 0 19 84 404 97 446 5 16 8 14 15 -15 4 -19 12 -62 17
-95z m7 -309 c-17 -58 -37 -82 -61 -72 -11 4 -14 13 -9 33 10 40 55 156 68
172 18 24 19 -72 2 -133z m174 34 c0 -11 -68 -70 -80 -70 -19 0 -11 59 10 73
20 14 70 12 70 -3z"/>
<path d="M5021 5769 c-41 -34 -71 -81 -71 -111 0 -35 10 -35 50 -2 37 31 60
73 60 109 0 30 -7 31 -39 4z"/>
<path d="M2585 5200 c-11 -18 98 -114 172 -153 90 -47 173 -53 173 -13 0 15
-42 36 -73 36 -30 1 -95 31 -164 78 -82 55 -101 64 -108 52z"/>
<path d="M2920 5165 c-18 -22 -3 -35 44 -35 61 0 129 -38 226 -126 112 -100
140 -121 140 -99 0 26 -75 129 -126 174 -95 83 -248 130 -284 86z"/>
<path d="M3550 4773 c0 -15 14 -29 55 -56 42 -28 80 -36 73 -14 -9 25 -128 92
-128 70z"/>
<path d="M6270 4634 c-46 -8 -89 -19 -94 -24 -10 -10 42 -36 95 -47 28 -5 30
-4 24 19 -7 29 11 38 80 38 56 0 91 10 73 21 -18 12 -78 9 -178 -7z"/>
<path d="M10455 4450 c-27 -29 -57 -113 -48 -137 12 -32 34 -4 48 61 3 16 22
45 41 64 19 19 34 36 34 38 0 2 -10 4 -23 4 -13 0 -36 -13 -52 -30z"/>
<path d="M6950 4311 c-45 -19 -65 -41 -35 -41 23 0 115 41 115 51 0 14 -30 10
-80 -10z"/>
<path d="M7022 4263 c-22 -9 -2 -23 34 -23 38 0 46 15 12 24 -26 6 -28 6 -46
-1z"/>
<path d="M6930 4211 c0 -13 18 -24 60 -36 19 -6 35 -17 35 -25 0 -8 9 -16 21
-18 28 -4 77 16 69 28 -5 9 -155 60 -176 60 -5 0 -9 -4 -9 -9z"/>
<path d="M4150 4171 c104 -34 154 -59 209 -105 43 -36 86 -54 98 -42 12 12
-117 127 -170 151 -42 20 -68 25 -137 25 l-85 -1 85 -28z"/>
<path d="M4340 3942 c0 -37 174 -114 321 -143 66 -13 76 -10 60 19 -18 33 -62
55 -108 53 -31 -1 -71 10 -138 39 -91 39 -135 49 -135 32z"/>
<path d="M6796 3620 c-15 -37 -10 -80 10 -80 30 0 45 98 16 108 -7 2 -18 -11
-26 -28z"/>
<path d="M9237 3435 c42 -54 81 -90 89 -82 9 9 -9 30 -70 80 l-51 42 32 -40z"/>
<path d="M9686 3433 c-10 -24 13 -91 36 -107 42 -30 49 0 17 68 -22 48 -44 64
-53 39z"/>
<path d="M7211 3261 c-14 -25 -14 -91 -1 -91 16 0 51 62 48 85 -4 27 -34 31
-47 6z"/>
<path d="M9620 3180 c-16 -39 -6 -88 26 -125 l25 -30 -6 78 c-9 113 -21 135
-45 77z"/>
<path d="M9499 2463 c87 -241 110 -303 126 -330 l16 -28 -6 40 c-8 55 -91 299
-123 365 -47 94 -54 68 -13 -47z"/>
<path d="M9597 1644 c-10 -10 -9 -64 2 -64 12 0 21 41 12 57 -4 7 -10 10 -14
7z"/>
<path d="M7468 1406 c-67 -28 -135 -66 -177 -102 -33 -28 -35 -32 -22 -52 7
-11 14 -11 42 3 44 23 204 132 219 150 20 24 -5 24 -62 1z"/>
<path d="M7429 899 c-115 -59 -183 -114 -157 -124 21 -8 81 25 179 97 68 49
99 78 83 78 -5 -1 -52 -23 -105 -51z"/>
</g>
</svg>
